<svg width="16" height="16" viewBox="0 0 16 16" fill="none" xmlns="http://www.w3.org/2000/svg">
<circle cx="8" cy="8" r="8" fill="#1D4575"/>
<path d="M12.2836 10.8948C12.1576 10.748 11.863 10.1608 11.863 10.1608C11.863 10.1608 11.9117 10.0984 11.863 9.88805C11.7998 9.61554 11.5263 9.63637 11.4634 9.5736C11.4001 9.51067 10.8532 8.51467 10.8112 8.39925C10.7691 8.28381 10.3061 6.9735 10.3061 6.9735C10.1506 6.29193 9.86406 6.00887 9.48556 5.92497C9.11021 5.84194 8.90695 5.86206 8.73858 5.71525C8.63351 5.62364 8.63724 5.55558 8.63724 5.27923C8.63724 5.27923 8.75062 5.17181 8.83335 5.02327C8.92782 4.85335 8.97422 4.60808 8.97422 4.60808C9.06898 4.57027 9.07013 4.52319 9.11106 4.37309C9.16776 4.16536 9.16375 4.02297 9.0123 4.02297C9.0481 3.34557 8.7071 3 8.15999 3C7.61315 3 7.27215 3.34557 7.30794 4.02299C7.15649 4.02299 7.1522 4.16538 7.20915 4.37311C7.25009 4.5232 7.25124 4.57029 7.34573 4.6081C7.34573 4.6081 7.3921 4.85337 7.48688 5.02329C7.56963 5.17181 7.683 5.27925 7.683 5.27925C7.683 5.5556 7.68644 5.62366 7.58136 5.71527C7.41329 5.86208 7.20974 5.84196 6.83468 5.92499C6.45591 6.00887 6.16959 6.29195 6.01414 6.97352C6.01414 6.97352 5.55119 8.28385 5.50911 8.39927C5.46703 8.51469 4.91987 9.51069 4.8569 9.57362C4.7939 9.63639 4.52021 9.61556 4.45721 9.88807C4.40855 10.0984 4.45721 10.1609 4.45721 10.1609C4.45721 10.1609 4.16261 10.748 4.03634 10.8948C3.9101 11.0415 4.14171 11.1463 4.28887 10.9576C4.30604 10.9831 4.36445 11.0015 4.43059 11.0103C3.91725 11.5768 4.20985 12.3147 5.00435 12.2787C5.65567 12.2492 8.15999 11.7963 8.15999 11.7963C8.15999 11.7963 10.6643 12.2492 11.3159 12.2787C12.1104 12.3147 12.403 11.5768 11.8894 11.0103C11.9558 11.0015 12.0142 10.9831 12.0314 10.9576C12.1785 11.1463 12.4099 11.0414 12.2836 10.8948ZM6.83468 9.95725C6.83468 9.95725 5.75674 10.2767 5.08536 10.5777C5.22365 10.3212 5.38283 9.97195 5.38283 9.97195L6.05622 9.00748L6.59277 7.84354C6.59277 7.84354 6.76111 8.47273 6.81351 8.56703C6.86617 8.66133 6.83468 9.95725 6.83468 9.95725ZM9.48556 9.95725C9.48556 9.95725 9.45406 8.66135 9.50645 8.56703C9.55914 8.47273 9.72748 7.84354 9.72748 7.84354L10.264 9.00748L10.9371 9.97195C10.9371 9.97195 11.0966 10.3212 11.2349 10.5777C10.5635 10.2767 9.48556 9.95725 9.48556 9.95725Z" fill="#21C3B9"/>
</svg>
