<svg width="229" height="58" viewBox="0 0 229 58" fill="none" xmlns="http://www.w3.org/2000/svg">
<path d="M8.05307 56.075C7.93307 56.075 7.83807 56.06 7.76807 56.03C7.69807 56 7.66307 55.955 7.66307 55.895C7.66307 55.765 7.80807 55.67 8.09807 55.61C8.46807 55.53 8.74307 55.42 8.92307 55.28C9.10307 55.13 9.19307 54.88 9.19307 54.53V47.75C9.19307 47.41 9.12307 47.16 8.98307 47C8.84307 46.84 8.58807 46.735 8.21807 46.685C8.06807 46.665 7.95807 46.63 7.88807 46.58C7.81807 46.52 7.78307 46.455 7.78307 46.385C7.78307 46.325 7.81807 46.28 7.88807 46.25C7.95807 46.21 8.05307 46.19 8.17307 46.19C8.46307 46.19 8.69307 46.195 8.86307 46.205C9.03307 46.215 9.19307 46.225 9.34307 46.235C9.50307 46.235 9.68807 46.235 9.89807 46.235C10.1081 46.235 10.2881 46.23 10.4381 46.22C10.5981 46.2 10.7731 46.185 10.9631 46.175C11.1631 46.155 11.4181 46.145 11.7281 46.145C12.9081 46.145 13.7931 46.315 14.3831 46.655C14.9731 46.985 15.2681 47.56 15.2681 48.38C15.2681 48.71 15.2031 49.005 15.0731 49.265C14.9531 49.525 14.8181 49.725 14.6681 49.865C14.5081 50.015 14.3531 50.135 14.2031 50.225C14.0631 50.315 13.8731 50.4 13.6331 50.48C13.5931 50.49 13.5731 50.515 13.5731 50.555C13.5731 50.585 13.5931 50.61 13.6331 50.63C13.8731 50.7 14.1181 50.79 14.3681 50.9C14.6281 51 14.8731 51.14 15.1031 51.32C15.3331 51.49 15.5131 51.72 15.6431 52.01C15.7831 52.29 15.8531 52.65 15.8531 53.09C15.8531 53.64 15.7631 54.08 15.5831 54.41C15.4131 54.73 15.2081 54.975 14.9681 55.145C14.7281 55.315 14.5031 55.455 14.2931 55.565C13.9731 55.725 13.6081 55.85 13.1981 55.94C12.7881 56.02 12.2931 56.06 11.7131 56.06C11.5131 56.06 11.2681 56.05 10.9781 56.03C10.6981 56.01 10.3931 56 10.0631 56C9.82307 56 9.59807 56.005 9.38807 56.015C9.18807 56.025 8.98307 56.035 8.77307 56.045C8.56307 56.065 8.32307 56.075 8.05307 56.075ZM11.8481 55.37C12.2481 55.37 12.6131 55.275 12.9431 55.085C13.2831 54.895 13.5531 54.635 13.7531 54.305C13.9631 53.965 14.0681 53.59 14.0681 53.18C14.0681 52.8 14.0081 52.49 13.8881 52.25C13.7781 52 13.6481 51.8 13.4981 51.65C13.3481 51.5 13.2131 51.39 13.0931 51.32C12.9731 51.24 12.7881 51.16 12.5381 51.08C12.2881 51 11.9631 50.96 11.5631 50.96C11.3031 50.96 11.1031 51.015 10.9631 51.125C10.8331 51.235 10.7681 51.355 10.7681 51.485V54.35C10.7681 54.73 10.8631 54.995 11.0531 55.145C11.2431 55.295 11.5081 55.37 11.8481 55.37ZM11.4281 50.45C11.6881 50.45 11.9531 50.42 12.2231 50.36C12.5031 50.3 12.7781 50.185 13.0481 50.015C13.1481 49.955 13.2731 49.815 13.4231 49.595C13.5731 49.365 13.6481 49.04 13.6481 48.62C13.6481 48.28 13.5931 47.965 13.4831 47.675C13.3831 47.375 13.1881 47.135 12.8981 46.955C12.6181 46.765 12.2131 46.67 11.6831 46.67C11.3231 46.67 11.0781 46.725 10.9481 46.835C10.8281 46.945 10.7681 47.11 10.7681 47.33V49.895C10.7681 50.135 10.8481 50.29 11.0081 50.36C11.1681 50.42 11.3081 50.45 11.4281 50.45ZM17.2569 56.075C17.1369 56.075 17.0419 56.06 16.9719 56.03C16.9019 56 16.8669 55.955 16.8669 55.895C16.8669 55.765 17.0119 55.67 17.3019 55.61C17.6719 55.53 17.9369 55.42 18.0969 55.28C18.2669 55.13 18.3519 54.88 18.3519 54.53V47.75C18.3519 47.41 18.2819 47.165 18.1419 47.015C18.0019 46.865 17.7469 46.755 17.3769 46.685C17.2269 46.655 17.1169 46.615 17.0469 46.565C16.9769 46.515 16.9419 46.455 16.9419 46.385C16.9419 46.325 16.9769 46.28 17.0469 46.25C17.1169 46.21 17.2119 46.19 17.3319 46.19C17.6619 46.19 17.9569 46.195 18.2169 46.205C18.4869 46.215 18.7469 46.225 18.9969 46.235C19.2569 46.245 19.5369 46.25 19.8369 46.25C20.2369 46.25 20.6569 46.25 21.0969 46.25C21.5469 46.24 21.9519 46.23 22.3119 46.22C22.6519 46.22 22.9319 46.215 23.1519 46.205C23.3819 46.185 23.5169 46.175 23.5569 46.175C23.6169 46.175 23.6769 46.19 23.7369 46.22C23.8069 46.24 23.8469 46.285 23.8569 46.355C23.9069 46.665 23.9569 46.97 24.0069 47.27C24.0669 47.56 24.0969 47.815 24.0969 48.035C24.0969 48.135 24.0719 48.205 24.0219 48.245C23.9819 48.275 23.9369 48.29 23.8869 48.29C23.8369 48.29 23.7969 48.275 23.7669 48.245C23.7369 48.215 23.7069 48.17 23.6769 48.11C23.6069 47.91 23.5419 47.73 23.4819 47.57C23.4219 47.4 23.3519 47.275 23.2719 47.195C23.1419 47.055 22.9919 46.95 22.8219 46.88C22.6519 46.81 22.4619 46.775 22.2519 46.775H20.5719C20.4419 46.775 20.3019 46.825 20.1519 46.925C20.0119 47.015 19.9419 47.145 19.9419 47.315V50.375C19.9419 50.475 19.9719 50.555 20.0319 50.615C20.0919 50.675 20.1619 50.705 20.2419 50.705H21.6669C21.9569 50.705 22.1569 50.64 22.2669 50.51C22.3769 50.38 22.4669 50.18 22.5369 49.91C22.6069 49.71 22.7019 49.61 22.8219 49.61C22.8719 49.61 22.9169 49.635 22.9569 49.685C22.9969 49.725 23.0169 49.79 23.0169 49.88C23.0169 49.94 23.0119 50.04 23.0019 50.18C22.9919 50.32 22.9819 50.465 22.9719 50.615C22.9619 50.765 22.9569 50.885 22.9569 50.975C22.9569 51.085 22.9569 51.22 22.9569 51.38C22.9669 51.53 22.9769 51.68 22.9869 51.83C22.9969 51.98 23.0019 52.09 23.0019 52.16C23.0119 52.25 23.0019 52.325 22.9719 52.385C22.9519 52.435 22.9169 52.46 22.8669 52.46C22.7069 52.46 22.5869 52.315 22.5069 52.025C22.4469 51.765 22.3619 51.57 22.2519 51.44C22.1519 51.31 22.0019 51.245 21.8019 51.245H20.4069C20.2469 51.245 20.1269 51.27 20.0469 51.32C19.9769 51.37 19.9419 51.475 19.9419 51.635V54.5C19.9419 54.85 20.0169 55.095 20.1669 55.235C20.3169 55.365 20.5469 55.43 20.8569 55.43H22.0419C22.3219 55.43 22.5669 55.41 22.7769 55.37C22.9869 55.33 23.1669 55.255 23.3169 55.145C23.4869 55.025 23.6369 54.87 23.7669 54.68C23.8969 54.49 24.0319 54.255 24.1719 53.975C24.2119 53.915 24.2519 53.87 24.2919 53.84C24.3319 53.8 24.3769 53.785 24.4269 53.795C24.4869 53.795 24.5269 53.82 24.5469 53.87C24.5769 53.91 24.5919 53.965 24.5919 54.035C24.5919 54.145 24.5669 54.31 24.5169 54.53C24.4669 54.75 24.4019 54.98 24.3219 55.22C24.2519 55.46 24.1869 55.665 24.1269 55.835C24.0969 55.905 24.0619 55.96 24.0219 56C23.9819 56.05 23.9319 56.075 23.8719 56.075C23.5119 56.075 23.1369 56.07 22.7469 56.06C22.3569 56.05 21.9569 56.04 21.5469 56.03C21.1369 56.02 20.7269 56.01 20.3169 56C19.9069 55.99 19.5019 55.985 19.1019 55.985C18.8919 55.985 18.6919 55.99 18.5019 56C18.3119 56.02 18.1169 56.035 17.9169 56.045C17.7269 56.065 17.5069 56.075 17.2569 56.075ZM35.0072 56.27C34.9072 56.27 34.7172 56.19 34.4372 56.03C34.1672 55.88 33.9022 55.63 33.6422 55.28C33.5322 55.16 33.3622 54.97 33.1322 54.71C32.9122 54.44 32.6472 54.13 32.3372 53.78C32.0372 53.43 31.7122 53.055 31.3622 52.655C31.0222 52.255 30.6772 51.86 30.3272 51.47C29.9872 51.07 29.6622 50.695 29.3522 50.345C29.0522 49.995 28.7822 49.685 28.5422 49.415C28.3122 49.145 28.1372 48.95 28.0172 48.83C27.9672 48.76 27.9172 48.705 27.8672 48.665C27.8272 48.625 27.7872 48.605 27.7472 48.605C27.7072 48.605 27.6772 48.645 27.6572 48.725C27.6372 48.795 27.6272 48.86 27.6272 48.92C27.6172 49.4 27.6122 49.955 27.6122 50.585C27.6122 51.215 27.6072 51.865 27.5972 52.535C27.5972 53.195 27.5972 53.815 27.5972 54.395C27.5972 54.685 27.6772 54.94 27.8372 55.16C27.9972 55.37 28.2672 55.515 28.6472 55.595C28.7872 55.625 28.8972 55.66 28.9772 55.7C29.0672 55.74 29.1122 55.8 29.1122 55.88C29.1122 55.94 29.0722 55.985 28.9922 56.015C28.9122 56.045 28.8122 56.06 28.6922 56.06C28.4222 56.06 28.2122 56.05 28.0622 56.03C27.9222 56.02 27.7922 56.01 27.6722 56C27.5522 56 27.3922 56 27.1922 56C27.0022 56 26.8372 56.005 26.6972 56.015C26.5672 56.025 26.4372 56.035 26.3072 56.045C26.1772 56.055 26.0172 56.06 25.8272 56.06C25.7172 56.06 25.6172 56.045 25.5272 56.015C25.4472 55.995 25.4072 55.95 25.4072 55.88C25.4072 55.81 25.4472 55.755 25.5272 55.715C25.6072 55.665 25.7222 55.62 25.8722 55.58C26.1422 55.5 26.3422 55.355 26.4722 55.145C26.6022 54.925 26.6772 54.665 26.6972 54.365C26.7372 53.985 26.7772 53.485 26.8172 52.865C26.8672 52.245 26.9072 51.55 26.9372 50.78C26.9672 50.01 26.9822 49.215 26.9822 48.395C26.9822 47.865 26.8472 47.485 26.5772 47.255C26.3072 47.025 25.9622 46.84 25.5422 46.7C25.4922 46.68 25.4022 46.64 25.2722 46.58C25.1522 46.52 25.0922 46.445 25.0922 46.355C25.0922 46.265 25.1372 46.205 25.2272 46.175C25.3172 46.145 25.3922 46.13 25.4522 46.13C25.7122 46.14 25.9372 46.15 26.1272 46.16C26.3272 46.16 26.5172 46.165 26.6972 46.175C26.8772 46.185 27.0672 46.195 27.2672 46.205C27.4672 46.205 27.7022 46.205 27.9722 46.205C28.0622 46.205 28.1322 46.23 28.1822 46.28C28.2322 46.32 28.2772 46.37 28.3172 46.43C28.4272 46.56 28.5972 46.765 28.8272 47.045C29.0672 47.325 29.3422 47.655 29.6522 48.035C29.9722 48.415 30.3122 48.82 30.6722 49.25C31.0322 49.67 31.3922 50.095 31.7522 50.525C32.1122 50.955 32.4522 51.36 32.7722 51.74C33.0922 52.12 33.3672 52.45 33.5972 52.73C33.8372 53 34.0072 53.195 34.1072 53.315C34.1472 53.355 34.1972 53.41 34.2572 53.48C34.3272 53.55 34.3872 53.585 34.4372 53.585C34.5272 53.585 34.5772 53.49 34.5872 53.3C34.5872 53.1 34.5872 52.8 34.5872 52.4C34.5872 52 34.5872 51.535 34.5872 51.005C34.5972 50.475 34.6022 49.92 34.6022 49.34C34.6022 48.75 34.5972 48.165 34.5872 47.585C34.5772 47.365 34.4722 47.18 34.2722 47.03C34.0722 46.87 33.8572 46.765 33.6272 46.715C33.4872 46.695 33.3572 46.66 33.2372 46.61C33.1172 46.56 33.0572 46.495 33.0572 46.415C33.0572 46.355 33.1172 46.31 33.2372 46.28C33.3572 46.25 33.4722 46.235 33.5822 46.235C33.7322 46.235 33.8622 46.235 33.9722 46.235C34.0922 46.235 34.2072 46.235 34.3172 46.235C34.4272 46.235 34.5372 46.235 34.6472 46.235C34.8772 46.235 35.0622 46.235 35.2022 46.235C35.3422 46.225 35.4922 46.215 35.6522 46.205C35.8222 46.195 36.0522 46.19 36.3422 46.19C36.4622 46.19 36.5572 46.205 36.6272 46.235C36.7072 46.265 36.7472 46.315 36.7472 46.385C36.7472 46.525 36.5922 46.625 36.2822 46.685C35.9222 46.755 35.6772 46.85 35.5472 46.97C35.4172 47.08 35.3472 47.265 35.3372 47.525C35.3372 47.685 35.3322 47.95 35.3222 48.32C35.3122 48.68 35.3022 49.105 35.2922 49.595C35.2922 50.085 35.2872 50.6 35.2772 51.14C35.2672 51.68 35.2622 52.21 35.2622 52.73C35.2622 53.25 35.2622 53.72 35.2622 54.14C35.2622 54.38 35.2722 54.615 35.2922 54.845C35.3122 55.065 35.3272 55.26 35.3372 55.43C35.3572 55.59 35.3672 55.71 35.3672 55.79C35.3672 55.98 35.3322 56.105 35.2622 56.165C35.1922 56.235 35.1072 56.27 35.0072 56.27ZM37.75 56.075C37.63 56.075 37.535 56.06 37.465 56.03C37.395 56 37.36 55.955 37.36 55.895C37.36 55.765 37.505 55.67 37.795 55.61C38.165 55.53 38.43 55.42 38.59 55.28C38.76 55.13 38.845 54.88 38.845 54.53V47.75C38.845 47.41 38.775 47.165 38.635 47.015C38.495 46.865 38.24 46.755 37.87 46.685C37.72 46.655 37.61 46.615 37.54 46.565C37.47 46.515 37.435 46.455 37.435 46.385C37.435 46.325 37.47 46.28 37.54 46.25C37.61 46.21 37.705 46.19 37.825 46.19C38.155 46.19 38.45 46.195 38.71 46.205C38.98 46.215 39.24 46.225 39.49 46.235C39.75 46.245 40.03 46.25 40.33 46.25C40.73 46.25 41.15 46.25 41.59 46.25C42.04 46.24 42.445 46.23 42.805 46.22C43.145 46.22 43.425 46.215 43.645 46.205C43.875 46.185 44.01 46.175 44.05 46.175C44.11 46.175 44.17 46.19 44.23 46.22C44.3 46.24 44.34 46.285 44.35 46.355C44.4 46.665 44.45 46.97 44.5 47.27C44.56 47.56 44.59 47.815 44.59 48.035C44.59 48.135 44.565 48.205 44.515 48.245C44.475 48.275 44.43 48.29 44.38 48.29C44.33 48.29 44.29 48.275 44.26 48.245C44.23 48.215 44.2 48.17 44.17 48.11C44.1 47.91 44.035 47.73 43.975 47.57C43.915 47.4 43.845 47.275 43.765 47.195C43.635 47.055 43.485 46.95 43.315 46.88C43.145 46.81 42.955 46.775 42.745 46.775H41.065C40.935 46.775 40.795 46.825 40.645 46.925C40.505 47.015 40.435 47.145 40.435 47.315V50.375C40.435 50.475 40.465 50.555 40.525 50.615C40.585 50.675 40.655 50.705 40.735 50.705H42.16C42.45 50.705 42.65 50.64 42.76 50.51C42.87 50.38 42.96 50.18 43.03 49.91C43.1 49.71 43.195 49.61 43.315 49.61C43.365 49.61 43.41 49.635 43.45 49.685C43.49 49.725 43.51 49.79 43.51 49.88C43.51 49.94 43.505 50.04 43.495 50.18C43.485 50.32 43.475 50.465 43.465 50.615C43.455 50.765 43.45 50.885 43.45 50.975C43.45 51.085 43.45 51.22 43.45 51.38C43.46 51.53 43.47 51.68 43.48 51.83C43.49 51.98 43.495 52.09 43.495 52.16C43.505 52.25 43.495 52.325 43.465 52.385C43.445 52.435 43.41 52.46 43.36 52.46C43.2 52.46 43.08 52.315 43 52.025C42.94 51.765 42.855 51.57 42.745 51.44C42.645 51.31 42.495 51.245 42.295 51.245H40.9C40.74 51.245 40.62 51.27 40.54 51.32C40.47 51.37 40.435 51.475 40.435 51.635V54.5C40.435 54.85 40.51 55.095 40.66 55.235C40.81 55.365 41.04 55.43 41.35 55.43H42.535C42.815 55.43 43.06 55.41 43.27 55.37C43.48 55.33 43.66 55.255 43.81 55.145C43.98 55.025 44.13 54.87 44.26 54.68C44.39 54.49 44.525 54.255 44.665 53.975C44.705 53.915 44.745 53.87 44.785 53.84C44.825 53.8 44.87 53.785 44.92 53.795C44.98 53.795 45.02 53.82 45.04 53.87C45.07 53.91 45.085 53.965 45.085 54.035C45.085 54.145 45.06 54.31 45.01 54.53C44.96 54.75 44.895 54.98 44.815 55.22C44.745 55.46 44.68 55.665 44.62 55.835C44.59 55.905 44.555 55.96 44.515 56C44.475 56.05 44.425 56.075 44.365 56.075C44.005 56.075 43.63 56.07 43.24 56.06C42.85 56.05 42.45 56.04 42.04 56.03C41.63 56.02 41.22 56.01 40.81 56C40.4 55.99 39.995 55.985 39.595 55.985C39.385 55.985 39.185 55.99 38.995 56C38.805 56.02 38.61 56.035 38.41 56.045C38.22 56.065 38 56.075 37.75 56.075ZM48.5554 56.225C48.1354 56.225 47.7404 56.165 47.3704 56.045C47.0004 55.935 46.6604 55.765 46.3504 55.535C46.3104 55.495 46.2654 55.45 46.2154 55.4C46.1754 55.34 46.1454 55.28 46.1254 55.22C46.0554 54.99 46.0054 54.705 45.9754 54.365C45.9554 54.015 45.9404 53.705 45.9304 53.435C45.9304 53.365 45.9604 53.315 46.0204 53.285C46.0804 53.245 46.1504 53.225 46.2304 53.225C46.3004 53.225 46.3554 53.24 46.3954 53.27C46.4454 53.29 46.4804 53.335 46.5004 53.405C46.7104 54.165 47.0204 54.735 47.4304 55.115C47.8404 55.485 48.2854 55.67 48.7654 55.67C49.1054 55.67 49.3954 55.595 49.6354 55.445C49.8854 55.295 50.0804 55.095 50.2204 54.845C50.3604 54.585 50.4304 54.295 50.4304 53.975C50.4304 53.595 50.3654 53.285 50.2354 53.045C50.1054 52.805 49.9154 52.59 49.6654 52.4C49.4154 52.21 49.1054 52.005 48.7354 51.785C48.3354 51.545 47.9404 51.295 47.5504 51.035C47.1704 50.775 46.8554 50.47 46.6054 50.12C46.3554 49.77 46.2304 49.34 46.2304 48.83C46.2304 48.29 46.3554 47.815 46.6054 47.405C46.8654 46.985 47.2404 46.655 47.7304 46.415C48.2204 46.165 48.8104 46.04 49.5004 46.04C49.8604 46.04 50.1854 46.08 50.4754 46.16C50.7754 46.23 51.0154 46.305 51.1954 46.385C51.2854 46.415 51.3554 46.465 51.4054 46.535C51.4654 46.605 51.5104 46.69 51.5404 46.79C51.5904 47 51.6454 47.245 51.7054 47.525C51.7654 47.805 51.7954 48.09 51.7954 48.38C51.7954 48.49 51.7154 48.545 51.5554 48.545C51.4654 48.545 51.3804 48.525 51.3004 48.485C51.2204 48.445 51.1704 48.395 51.1504 48.335C50.9504 47.775 50.7004 47.35 50.4004 47.06C50.1104 46.77 49.7404 46.625 49.2904 46.625C48.9904 46.625 48.7154 46.68 48.4654 46.79C48.2254 46.89 48.0304 47.06 47.8804 47.3C47.7404 47.53 47.6704 47.835 47.6704 48.215C47.6704 48.485 47.7604 48.74 47.9404 48.98C48.1304 49.21 48.3804 49.435 48.6904 49.655C49.0104 49.865 49.3654 50.085 49.7554 50.315C50.1654 50.565 50.5354 50.825 50.8654 51.095C51.1954 51.365 51.4554 51.675 51.6454 52.025C51.8354 52.365 51.9304 52.775 51.9304 53.255C51.9304 53.885 51.7904 54.425 51.5104 54.875C51.2304 55.315 50.8354 55.65 50.3254 55.88C49.8254 56.11 49.2354 56.225 48.5554 56.225ZM55.6746 56.225C55.2546 56.225 54.8596 56.165 54.4896 56.045C54.1196 55.935 53.7796 55.765 53.4696 55.535C53.4296 55.495 53.3846 55.45 53.3346 55.4C53.2946 55.34 53.2646 55.28 53.2446 55.22C53.1746 54.99 53.1246 54.705 53.0946 54.365C53.0746 54.015 53.0596 53.705 53.0496 53.435C53.0496 53.365 53.0796 53.315 53.1396 53.285C53.1996 53.245 53.2696 53.225 53.3496 53.225C53.4196 53.225 53.4746 53.24 53.5146 53.27C53.5646 53.29 53.5996 53.335 53.6196 53.405C53.8296 54.165 54.1396 54.735 54.5496 55.115C54.9596 55.485 55.4046 55.67 55.8846 55.67C56.2246 55.67 56.5146 55.595 56.7546 55.445C57.0046 55.295 57.1996 55.095 57.3396 54.845C57.4796 54.585 57.5496 54.295 57.5496 53.975C57.5496 53.595 57.4846 53.285 57.3546 53.045C57.2246 52.805 57.0346 52.59 56.7846 52.4C56.5346 52.21 56.2246 52.005 55.8546 51.785C55.4546 51.545 55.0596 51.295 54.6696 51.035C54.2896 50.775 53.9746 50.47 53.7246 50.12C53.4746 49.77 53.3496 49.34 53.3496 48.83C53.3496 48.29 53.4746 47.815 53.7246 47.405C53.9846 46.985 54.3596 46.655 54.8496 46.415C55.3396 46.165 55.9296 46.04 56.6196 46.04C56.9796 46.04 57.3046 46.08 57.5946 46.16C57.8946 46.23 58.1346 46.305 58.3146 46.385C58.4046 46.415 58.4746 46.465 58.5246 46.535C58.5846 46.605 58.6296 46.69 58.6596 46.79C58.7096 47 58.7646 47.245 58.8246 47.525C58.8846 47.805 58.9146 48.09 58.9146 48.38C58.9146 48.49 58.8346 48.545 58.6746 48.545C58.5846 48.545 58.4996 48.525 58.4196 48.485C58.3396 48.445 58.2896 48.395 58.2696 48.335C58.0696 47.775 57.8196 47.35 57.5196 47.06C57.2296 46.77 56.8596 46.625 56.4096 46.625C56.1096 46.625 55.8346 46.68 55.5846 46.79C55.3446 46.89 55.1496 47.06 54.9996 47.3C54.8596 47.53 54.7896 47.835 54.7896 48.215C54.7896 48.485 54.8796 48.74 55.0596 48.98C55.2496 49.21 55.4996 49.435 55.8096 49.655C56.1296 49.865 56.4846 50.085 56.8746 50.315C57.2846 50.565 57.6546 50.825 57.9846 51.095C58.3146 51.365 58.5746 51.675 58.7646 52.025C58.9546 52.365 59.0496 52.775 59.0496 53.255C59.0496 53.885 58.9096 54.425 58.6296 54.875C58.3496 55.315 57.9546 55.65 57.4446 55.88C56.9446 56.11 56.3546 56.225 55.6746 56.225ZM60.5137 56.075C60.3937 56.075 60.2987 56.06 60.2287 56.03C60.1587 56 60.1237 55.955 60.1237 55.895C60.1237 55.765 60.2687 55.67 60.5587 55.61C60.9287 55.53 61.1937 55.42 61.3537 55.28C61.5237 55.13 61.6087 54.88 61.6087 54.53V47.75C61.6087 47.41 61.5387 47.165 61.3987 47.015C61.2587 46.865 61.0037 46.755 60.6337 46.685C60.4837 46.655 60.3737 46.615 60.3037 46.565C60.2337 46.515 60.1987 46.455 60.1987 46.385C60.1987 46.325 60.2337 46.28 60.3037 46.25C60.3737 46.21 60.4687 46.19 60.5887 46.19C60.9187 46.19 61.2137 46.195 61.4737 46.205C61.7437 46.215 62.0037 46.225 62.2537 46.235C62.5137 46.245 62.7937 46.25 63.0937 46.25C63.4937 46.25 63.9137 46.25 64.3537 46.25C64.8037 46.24 65.2087 46.23 65.5687 46.22C65.9087 46.22 66.1887 46.215 66.4087 46.205C66.6387 46.185 66.7737 46.175 66.8137 46.175C66.8737 46.175 66.9337 46.19 66.9937 46.22C67.0637 46.24 67.1037 46.285 67.1137 46.355C67.1637 46.665 67.2137 46.97 67.2637 47.27C67.3237 47.56 67.3537 47.815 67.3537 48.035C67.3537 48.135 67.3287 48.205 67.2787 48.245C67.2387 48.275 67.1937 48.29 67.1437 48.29C67.0937 48.29 67.0537 48.275 67.0237 48.245C66.9937 48.215 66.9637 48.17 66.9337 48.11C66.8637 47.91 66.7987 47.73 66.7387 47.57C66.6787 47.4 66.6087 47.275 66.5287 47.195C66.3987 47.055 66.2487 46.95 66.0787 46.88C65.9087 46.81 65.7187 46.775 65.5087 46.775H63.8287C63.6987 46.775 63.5587 46.825 63.4087 46.925C63.2687 47.015 63.1987 47.145 63.1987 47.315V50.375C63.1987 50.475 63.2287 50.555 63.2887 50.615C63.3487 50.675 63.4187 50.705 63.4987 50.705H64.9237C65.2137 50.705 65.4137 50.64 65.5237 50.51C65.6337 50.38 65.7237 50.18 65.7937 49.91C65.8637 49.71 65.9587 49.61 66.0787 49.61C66.1287 49.61 66.1737 49.635 66.2137 49.685C66.2537 49.725 66.2737 49.79 66.2737 49.88C66.2737 49.94 66.2687 50.04 66.2587 50.18C66.2487 50.32 66.2387 50.465 66.2287 50.615C66.2187 50.765 66.2137 50.885 66.2137 50.975C66.2137 51.085 66.2137 51.22 66.2137 51.38C66.2237 51.53 66.2337 51.68 66.2437 51.83C66.2537 51.98 66.2587 52.09 66.2587 52.16C66.2687 52.25 66.2587 52.325 66.2287 52.385C66.2087 52.435 66.1737 52.46 66.1237 52.46C65.9637 52.46 65.8437 52.315 65.7637 52.025C65.7037 51.765 65.6187 51.57 65.5087 51.44C65.4087 51.31 65.2587 51.245 65.0587 51.245H63.6637C63.5037 51.245 63.3837 51.27 63.3037 51.32C63.2337 51.37 63.1987 51.475 63.1987 51.635V54.5C63.1987 54.85 63.2737 55.095 63.4237 55.235C63.5737 55.365 63.8037 55.43 64.1137 55.43H65.2987C65.5787 55.43 65.8237 55.41 66.0337 55.37C66.2437 55.33 66.4237 55.255 66.5737 55.145C66.7437 55.025 66.8937 54.87 67.0237 54.68C67.1537 54.49 67.2887 54.255 67.4287 53.975C67.4687 53.915 67.5087 53.87 67.5487 53.84C67.5887 53.8 67.6337 53.785 67.6837 53.795C67.7437 53.795 67.7837 53.82 67.8037 53.87C67.8337 53.91 67.8487 53.965 67.8487 54.035C67.8487 54.145 67.8237 54.31 67.7737 54.53C67.7237 54.75 67.6587 54.98 67.5787 55.22C67.5087 55.46 67.4437 55.665 67.3837 55.835C67.3537 55.905 67.3187 55.96 67.2787 56C67.2387 56.05 67.1887 56.075 67.1287 56.075C66.7687 56.075 66.3937 56.07 66.0037 56.06C65.6137 56.05 65.2137 56.04 64.8037 56.03C64.3937 56.02 63.9837 56.01 63.5737 56C63.1637 55.99 62.7587 55.985 62.3587 55.985C62.1487 55.985 61.9487 55.99 61.7587 56C61.5687 56.02 61.3737 56.035 61.1737 56.045C60.9837 56.065 60.7637 56.075 60.5137 56.075ZM77.7841 56.315C77.4241 56.315 77.0991 56.275 76.8091 56.195C76.5291 56.125 76.2741 56.015 76.0441 55.865C75.8241 55.715 75.6241 55.53 75.4441 55.31C75.2141 55.01 74.9891 54.72 74.7691 54.44C74.5591 54.16 74.3391 53.845 74.1091 53.495C73.8791 53.135 73.6091 52.7 73.2991 52.19C73.1691 51.94 72.9841 51.755 72.7441 51.635C72.5741 51.545 72.3991 51.485 72.2191 51.455C72.0491 51.415 71.9091 51.39 71.7991 51.38C71.7291 51.38 71.6741 51.41 71.6341 51.47C71.6041 51.52 71.5891 51.59 71.5891 51.68V54.395C71.5891 54.715 71.6691 54.98 71.8291 55.19C71.9891 55.39 72.2641 55.525 72.6541 55.595C72.7941 55.625 72.8991 55.66 72.9691 55.7C73.0491 55.74 73.0891 55.8 73.0891 55.88C73.0891 55.94 73.0541 55.985 72.9841 56.015C72.9141 56.045 72.8191 56.06 72.6991 56.06C72.4491 56.06 72.2241 56.05 72.0241 56.03C71.8341 56.02 71.6491 56.01 71.4691 56C71.2991 55.98 71.1191 55.97 70.9291 55.97C70.6891 55.97 70.4591 55.98 70.2391 56C70.0291 56.01 69.8141 56.02 69.5941 56.03C69.3841 56.05 69.1491 56.06 68.8891 56.06C68.7791 56.06 68.6841 56.045 68.6041 56.015C68.5341 55.995 68.4991 55.95 68.4991 55.88C68.4991 55.75 68.6441 55.655 68.9341 55.595C69.3141 55.525 69.5841 55.415 69.7441 55.265C69.9141 55.115 69.9991 54.865 69.9991 54.515V48.005C69.9991 47.665 69.9791 47.41 69.9391 47.24C69.8991 47.06 69.8141 46.935 69.6841 46.865C69.5641 46.785 69.3691 46.725 69.0991 46.685C68.9391 46.665 68.8241 46.63 68.7541 46.58C68.6841 46.52 68.6491 46.455 68.6491 46.385C68.6491 46.325 68.6841 46.28 68.7541 46.25C68.8341 46.21 68.9291 46.19 69.0391 46.19C69.3291 46.19 69.5541 46.195 69.7141 46.205C69.8741 46.215 70.0241 46.225 70.1641 46.235C70.3141 46.235 70.4991 46.235 70.7191 46.235C70.9191 46.235 71.0991 46.23 71.2591 46.22C71.4191 46.2 71.5991 46.185 71.7991 46.175C71.9991 46.155 72.2541 46.145 72.5641 46.145C73.6841 46.145 74.5391 46.35 75.1291 46.76C75.7291 47.16 76.0291 47.77 76.0291 48.59C76.0291 49.04 75.9341 49.425 75.7441 49.745C75.5641 50.065 75.3341 50.33 75.0541 50.54C74.7741 50.75 74.4941 50.915 74.2141 51.035C74.1741 51.045 74.1541 51.07 74.1541 51.11C74.1641 51.14 74.1791 51.18 74.1991 51.23C74.5091 51.69 74.8041 52.13 75.0841 52.55C75.3741 52.96 75.6791 53.36 75.9991 53.75C76.3291 54.13 76.7041 54.515 77.1241 54.905C77.4041 55.165 77.6941 55.32 77.9941 55.37C78.3041 55.42 78.6341 55.445 78.9841 55.445C79.1341 55.445 79.2091 55.515 79.2091 55.655C79.2091 55.825 79.1291 55.955 78.9691 56.045C78.8191 56.145 78.6341 56.215 78.4141 56.255C78.1941 56.295 77.9841 56.315 77.7841 56.315ZM72.3091 50.99C72.7391 50.99 73.1041 50.895 73.4041 50.705C73.7141 50.505 73.9491 50.245 74.1091 49.925C74.2791 49.595 74.3641 49.24 74.3641 48.86C74.3641 48.43 74.3091 48.05 74.1991 47.72C74.0891 47.39 73.8891 47.135 73.5991 46.955C73.3091 46.765 72.8941 46.67 72.3541 46.67C72.0741 46.67 71.8841 46.77 71.7841 46.97C71.6841 47.16 71.6291 47.525 71.6191 48.065C71.6091 48.305 71.5991 48.625 71.5891 49.025C71.5891 49.425 71.5891 49.9 71.5891 50.45C71.5891 50.69 71.6541 50.84 71.7841 50.9C71.9141 50.96 72.0891 50.99 72.3091 50.99ZM79.9961 56.075C79.8761 56.075 79.7811 56.06 79.7111 56.03C79.6411 56 79.6061 55.955 79.6061 55.895C79.6061 55.765 79.7511 55.67 80.0411 55.61C80.4111 55.53 80.6761 55.42 80.8361 55.28C81.0061 55.13 81.0911 54.88 81.0911 54.53V47.75C81.0911 47.41 81.0211 47.165 80.8811 47.015C80.7411 46.865 80.4861 46.755 80.1161 46.685C79.9661 46.655 79.8561 46.615 79.7861 46.565C79.7161 46.515 79.6811 46.455 79.6811 46.385C79.6811 46.325 79.7161 46.28 79.7861 46.25C79.8561 46.21 79.9511 46.19 80.0711 46.19C80.4011 46.19 80.6961 46.195 80.9561 46.205C81.2261 46.215 81.4861 46.225 81.7361 46.235C81.9961 46.245 82.2761 46.25 82.5761 46.25C82.9761 46.25 83.3961 46.25 83.8361 46.25C84.2861 46.24 84.6911 46.23 85.0511 46.22C85.3911 46.22 85.6711 46.215 85.8911 46.205C86.1211 46.185 86.2561 46.175 86.2961 46.175C86.3561 46.175 86.4161 46.19 86.4761 46.22C86.5461 46.24 86.5861 46.285 86.5961 46.355C86.6461 46.665 86.6961 46.97 86.7461 47.27C86.8061 47.56 86.8361 47.815 86.8361 48.035C86.8361 48.135 86.8111 48.205 86.7611 48.245C86.7211 48.275 86.6761 48.29 86.6261 48.29C86.5761 48.29 86.5361 48.275 86.5061 48.245C86.4761 48.215 86.4461 48.17 86.4161 48.11C86.3461 47.91 86.2811 47.73 86.2211 47.57C86.1611 47.4 86.0911 47.275 86.0111 47.195C85.8811 47.055 85.7311 46.95 85.5611 46.88C85.3911 46.81 85.2011 46.775 84.9911 46.775H83.3111C83.1811 46.775 83.0411 46.825 82.8911 46.925C82.7511 47.015 82.6811 47.145 82.6811 47.315V50.375C82.6811 50.475 82.7111 50.555 82.7711 50.615C82.8311 50.675 82.9011 50.705 82.9811 50.705H84.4061C84.6961 50.705 84.8961 50.64 85.0061 50.51C85.1161 50.38 85.2061 50.18 85.2761 49.91C85.3461 49.71 85.4411 49.61 85.5611 49.61C85.6111 49.61 85.6561 49.635 85.6961 49.685C85.7361 49.725 85.7561 49.79 85.7561 49.88C85.7561 49.94 85.7511 50.04 85.7411 50.18C85.7311 50.32 85.7211 50.465 85.7111 50.615C85.7011 50.765 85.6961 50.885 85.6961 50.975C85.6961 51.085 85.6961 51.22 85.6961 51.38C85.7061 51.53 85.7161 51.68 85.7261 51.83C85.7361 51.98 85.7411 52.09 85.7411 52.16C85.7511 52.25 85.7411 52.325 85.7111 52.385C85.6911 52.435 85.6561 52.46 85.6061 52.46C85.4461 52.46 85.3261 52.315 85.2461 52.025C85.1861 51.765 85.1011 51.57 84.9911 51.44C84.8911 51.31 84.7411 51.245 84.5411 51.245H83.1461C82.9861 51.245 82.8661 51.27 82.7861 51.32C82.7161 51.37 82.6811 51.475 82.6811 51.635V54.5C82.6811 54.85 82.7561 55.095 82.9061 55.235C83.0561 55.365 83.2861 55.43 83.5961 55.43H84.7811C85.0611 55.43 85.3061 55.41 85.5161 55.37C85.7261 55.33 85.9061 55.255 86.0561 55.145C86.2261 55.025 86.3761 54.87 86.5061 54.68C86.6361 54.49 86.7711 54.255 86.9111 53.975C86.9511 53.915 86.9911 53.87 87.0311 53.84C87.0711 53.8 87.1161 53.785 87.1661 53.795C87.2261 53.795 87.2661 53.82 87.2861 53.87C87.3161 53.91 87.3311 53.965 87.3311 54.035C87.3311 54.145 87.3061 54.31 87.2561 54.53C87.2061 54.75 87.1411 54.98 87.0611 55.22C86.9911 55.46 86.9261 55.665 86.8661 55.835C86.8361 55.905 86.8011 55.96 86.7611 56C86.7211 56.05 86.6711 56.075 86.6111 56.075C86.2511 56.075 85.8761 56.07 85.4861 56.06C85.0961 56.05 84.6961 56.04 84.2861 56.03C83.8761 56.02 83.4661 56.01 83.0561 56C82.6461 55.99 82.2411 55.985 81.8411 55.985C81.6311 55.985 81.4311 55.99 81.2411 56C81.0511 56.02 80.8561 56.035 80.6561 56.045C80.4661 56.065 80.2461 56.075 79.9961 56.075ZM91.5649 56.06C91.4349 56.06 91.3299 56.045 91.2499 56.015C91.1799 55.995 91.1449 55.95 91.1449 55.88C91.1449 55.81 91.1849 55.76 91.2649 55.73C91.3549 55.69 91.4749 55.65 91.6249 55.61C91.8649 55.55 92.0649 55.425 92.2249 55.235C92.3949 55.045 92.5049 54.78 92.5549 54.44C92.6549 53.69 92.7449 52.935 92.8249 52.175C92.9049 51.405 92.9749 50.675 93.0349 49.985C93.0949 49.285 93.1349 48.665 93.1549 48.125C93.1549 48.055 93.1549 47.975 93.1549 47.885C93.1549 47.795 93.1499 47.71 93.1399 47.63C93.1399 47.52 93.1199 47.42 93.0799 47.33C93.0499 47.23 92.9799 47.145 92.8699 47.075C92.7099 46.945 92.5499 46.855 92.3899 46.805C92.2299 46.745 92.0499 46.695 91.8499 46.655C91.7399 46.635 91.6499 46.6 91.5799 46.55C91.5199 46.49 91.4899 46.425 91.4899 46.355C91.4899 46.265 91.5349 46.21 91.6249 46.19C91.7149 46.17 91.8299 46.16 91.9699 46.16C92.0899 46.16 92.2549 46.165 92.4649 46.175C92.6749 46.185 92.9049 46.2 93.1549 46.22C93.4049 46.23 93.6399 46.24 93.8599 46.25C94.0899 46.26 94.2799 46.265 94.4299 46.265C94.4999 46.265 94.5649 46.29 94.6249 46.34C94.6849 46.38 94.7249 46.44 94.7449 46.52C94.7949 46.7 94.8449 46.885 94.8949 47.075C94.9549 47.265 95.0199 47.46 95.0899 47.66L97.3999 53.405C97.4299 53.465 97.4749 53.5 97.5349 53.51C97.6049 53.52 97.6549 53.495 97.6849 53.435L100.355 47.69C100.415 47.46 100.465 47.24 100.505 47.03C100.555 46.81 100.6 46.625 100.64 46.475C100.67 46.345 100.73 46.28 100.82 46.28H101.39C101.73 46.28 102.09 46.26 102.47 46.22C102.85 46.17 103.14 46.145 103.34 46.145C103.41 46.145 103.485 46.16 103.565 46.19C103.645 46.21 103.685 46.255 103.685 46.325C103.685 46.405 103.655 46.465 103.595 46.505C103.535 46.545 103.44 46.59 103.31 46.64C103.2 46.68 103.08 46.725 102.95 46.775C102.82 46.825 102.7 46.875 102.59 46.925C102.43 46.995 102.305 47.09 102.215 47.21C102.125 47.32 102.085 47.47 102.095 47.66C102.095 48.37 102.11 49.02 102.14 49.61C102.17 50.19 102.195 50.745 102.215 51.275C102.245 51.805 102.28 52.335 102.32 52.865C102.36 53.395 102.395 53.96 102.425 54.56C102.445 54.85 102.55 55.08 102.74 55.25C102.93 55.41 103.2 55.525 103.55 55.595C103.69 55.625 103.795 55.66 103.865 55.7C103.945 55.74 103.985 55.8 103.985 55.88C103.985 55.94 103.95 55.985 103.88 56.015C103.81 56.045 103.715 56.06 103.595 56.06C103.345 56.06 103.115 56.05 102.905 56.03C102.695 56.02 102.485 56.01 102.275 56C102.075 55.99 101.865 55.985 101.645 55.985C101.445 55.985 101.26 55.99 101.09 56C100.92 56.01 100.74 56.02 100.55 56.03C100.36 56.05 100.135 56.06 99.8749 56.06C99.7649 56.06 99.6699 56.045 99.5899 56.015C99.5199 55.995 99.4849 55.95 99.4849 55.88C99.4849 55.81 99.5199 55.75 99.5899 55.7C99.6699 55.65 99.7799 55.615 99.9199 55.595C100.24 55.545 100.46 55.445 100.58 55.295C100.7 55.135 100.76 54.89 100.76 54.56C100.75 53.87 100.735 53.23 100.715 52.64C100.705 52.05 100.685 51.47 100.655 50.9C100.625 50.32 100.595 49.71 100.565 49.07C100.565 48.98 100.54 48.94 100.49 48.95C100.45 48.95 100.405 48.995 100.355 49.085L97.1149 56.045C97.0849 56.125 97.0299 56.16 96.9499 56.15C96.8699 56.15 96.8199 56.115 96.7999 56.045C96.3699 54.875 95.9149 53.725 95.4349 52.595C94.9649 51.455 94.4699 50.265 93.9499 49.025C93.9199 48.965 93.8749 48.94 93.8149 48.95C93.7649 48.96 93.7349 49 93.7249 49.07C93.6549 49.7 93.5899 50.31 93.5299 50.9C93.4799 51.49 93.4399 52.075 93.4099 52.655C93.3899 53.235 93.3799 53.835 93.3799 54.455C93.3799 54.735 93.4649 54.98 93.6349 55.19C93.8149 55.39 94.0699 55.525 94.3999 55.595C94.5499 55.625 94.6649 55.66 94.7449 55.7C94.8349 55.74 94.8799 55.8 94.8799 55.88C94.8799 55.94 94.8399 55.985 94.7599 56.015C94.6799 56.045 94.5799 56.06 94.4599 56.06C94.1899 56.06 93.9849 56.05 93.8449 56.03C93.7049 56.02 93.5799 56.01 93.4699 56C93.3599 56 93.2049 56 93.0049 56C92.8149 56 92.6449 56.005 92.4949 56.015C92.3549 56.025 92.2099 56.035 92.0599 56.045C91.9199 56.055 91.7549 56.06 91.5649 56.06ZM105.323 56.075C105.203 56.075 105.108 56.06 105.038 56.03C104.968 56 104.933 55.955 104.933 55.895C104.933 55.765 105.078 55.67 105.368 55.61C105.738 55.53 106.003 55.42 106.163 55.28C106.333 55.13 106.418 54.88 106.418 54.53V47.75C106.418 47.41 106.348 47.165 106.208 47.015C106.068 46.865 105.813 46.755 105.443 46.685C105.293 46.655 105.183 46.615 105.113 46.565C105.043 46.515 105.008 46.455 105.008 46.385C105.008 46.325 105.043 46.28 105.113 46.25C105.183 46.21 105.278 46.19 105.398 46.19C105.728 46.19 106.023 46.195 106.283 46.205C106.553 46.215 106.813 46.225 107.063 46.235C107.323 46.245 107.603 46.25 107.903 46.25C108.303 46.25 108.723 46.25 109.163 46.25C109.613 46.24 110.018 46.23 110.378 46.22C110.718 46.22 110.998 46.215 111.218 46.205C111.448 46.185 111.583 46.175 111.623 46.175C111.683 46.175 111.743 46.19 111.803 46.22C111.873 46.24 111.913 46.285 111.923 46.355C111.973 46.665 112.023 46.97 112.073 47.27C112.133 47.56 112.163 47.815 112.163 48.035C112.163 48.135 112.138 48.205 112.088 48.245C112.048 48.275 112.003 48.29 111.953 48.29C111.903 48.29 111.863 48.275 111.833 48.245C111.803 48.215 111.773 48.17 111.743 48.11C111.673 47.91 111.608 47.73 111.548 47.57C111.488 47.4 111.418 47.275 111.338 47.195C111.208 47.055 111.058 46.95 110.888 46.88C110.718 46.81 110.528 46.775 110.318 46.775H108.638C108.508 46.775 108.368 46.825 108.218 46.925C108.078 47.015 108.008 47.145 108.008 47.315V50.375C108.008 50.475 108.038 50.555 108.098 50.615C108.158 50.675 108.228 50.705 108.308 50.705H109.733C110.023 50.705 110.223 50.64 110.333 50.51C110.443 50.38 110.533 50.18 110.603 49.91C110.673 49.71 110.768 49.61 110.888 49.61C110.938 49.61 110.983 49.635 111.023 49.685C111.063 49.725 111.083 49.79 111.083 49.88C111.083 49.94 111.078 50.04 111.068 50.18C111.058 50.32 111.048 50.465 111.038 50.615C111.028 50.765 111.023 50.885 111.023 50.975C111.023 51.085 111.023 51.22 111.023 51.38C111.033 51.53 111.043 51.68 111.053 51.83C111.063 51.98 111.068 52.09 111.068 52.16C111.078 52.25 111.068 52.325 111.038 52.385C111.018 52.435 110.983 52.46 110.933 52.46C110.773 52.46 110.653 52.315 110.573 52.025C110.513 51.765 110.428 51.57 110.318 51.44C110.218 51.31 110.068 51.245 109.868 51.245H108.473C108.313 51.245 108.193 51.27 108.113 51.32C108.043 51.37 108.008 51.475 108.008 51.635V54.5C108.008 54.85 108.083 55.095 108.233 55.235C108.383 55.365 108.613 55.43 108.923 55.43H110.108C110.388 55.43 110.633 55.41 110.843 55.37C111.053 55.33 111.233 55.255 111.383 55.145C111.553 55.025 111.703 54.87 111.833 54.68C111.963 54.49 112.098 54.255 112.238 53.975C112.278 53.915 112.318 53.87 112.358 53.84C112.398 53.8 112.443 53.785 112.493 53.795C112.553 53.795 112.593 53.82 112.613 53.87C112.643 53.91 112.658 53.965 112.658 54.035C112.658 54.145 112.633 54.31 112.583 54.53C112.533 54.75 112.468 54.98 112.388 55.22C112.318 55.46 112.253 55.665 112.193 55.835C112.163 55.905 112.128 55.96 112.088 56C112.048 56.05 111.998 56.075 111.938 56.075C111.578 56.075 111.203 56.07 110.813 56.06C110.423 56.05 110.023 56.04 109.613 56.03C109.203 56.02 108.793 56.01 108.383 56C107.973 55.99 107.568 55.985 107.168 55.985C106.958 55.985 106.758 55.99 106.568 56C106.378 56.02 106.183 56.035 105.983 56.045C105.793 56.065 105.573 56.075 105.323 56.075ZM123.074 56.27C122.974 56.27 122.784 56.19 122.504 56.03C122.234 55.88 121.969 55.63 121.709 55.28C121.599 55.16 121.429 54.97 121.199 54.71C120.979 54.44 120.714 54.13 120.404 53.78C120.104 53.43 119.779 53.055 119.429 52.655C119.089 52.255 118.744 51.86 118.394 51.47C118.054 51.07 117.729 50.695 117.419 50.345C117.119 49.995 116.849 49.685 116.609 49.415C116.379 49.145 116.204 48.95 116.084 48.83C116.034 48.76 115.984 48.705 115.934 48.665C115.894 48.625 115.854 48.605 115.814 48.605C115.774 48.605 115.744 48.645 115.724 48.725C115.704 48.795 115.694 48.86 115.694 48.92C115.684 49.4 115.679 49.955 115.679 50.585C115.679 51.215 115.674 51.865 115.664 52.535C115.664 53.195 115.664 53.815 115.664 54.395C115.664 54.685 115.744 54.94 115.904 55.16C116.064 55.37 116.334 55.515 116.714 55.595C116.854 55.625 116.964 55.66 117.044 55.7C117.134 55.74 117.179 55.8 117.179 55.88C117.179 55.94 117.139 55.985 117.059 56.015C116.979 56.045 116.879 56.06 116.759 56.06C116.489 56.06 116.279 56.05 116.129 56.03C115.989 56.02 115.859 56.01 115.739 56C115.619 56 115.459 56 115.259 56C115.069 56 114.904 56.005 114.764 56.015C114.634 56.025 114.504 56.035 114.374 56.045C114.244 56.055 114.084 56.06 113.894 56.06C113.784 56.06 113.684 56.045 113.594 56.015C113.514 55.995 113.474 55.95 113.474 55.88C113.474 55.81 113.514 55.755 113.594 55.715C113.674 55.665 113.789 55.62 113.939 55.58C114.209 55.5 114.409 55.355 114.539 55.145C114.669 54.925 114.744 54.665 114.764 54.365C114.804 53.985 114.844 53.485 114.884 52.865C114.934 52.245 114.974 51.55 115.004 50.78C115.034 50.01 115.049 49.215 115.049 48.395C115.049 47.865 114.914 47.485 114.644 47.255C114.374 47.025 114.029 46.84 113.609 46.7C113.559 46.68 113.469 46.64 113.339 46.58C113.219 46.52 113.159 46.445 113.159 46.355C113.159 46.265 113.204 46.205 113.294 46.175C113.384 46.145 113.459 46.13 113.519 46.13C113.779 46.14 114.004 46.15 114.194 46.16C114.394 46.16 114.584 46.165 114.764 46.175C114.944 46.185 115.134 46.195 115.334 46.205C115.534 46.205 115.769 46.205 116.039 46.205C116.129 46.205 116.199 46.23 116.249 46.28C116.299 46.32 116.344 46.37 116.384 46.43C116.494 46.56 116.664 46.765 116.894 47.045C117.134 47.325 117.409 47.655 117.719 48.035C118.039 48.415 118.379 48.82 118.739 49.25C119.099 49.67 119.459 50.095 119.819 50.525C120.179 50.955 120.519 51.36 120.839 51.74C121.159 52.12 121.434 52.45 121.664 52.73C121.904 53 122.074 53.195 122.174 53.315C122.214 53.355 122.264 53.41 122.324 53.48C122.394 53.55 122.454 53.585 122.504 53.585C122.594 53.585 122.644 53.49 122.654 53.3C122.654 53.1 122.654 52.8 122.654 52.4C122.654 52 122.654 51.535 122.654 51.005C122.664 50.475 122.669 49.92 122.669 49.34C122.669 48.75 122.664 48.165 122.654 47.585C122.644 47.365 122.539 47.18 122.339 47.03C122.139 46.87 121.924 46.765 121.694 46.715C121.554 46.695 121.424 46.66 121.304 46.61C121.184 46.56 121.124 46.495 121.124 46.415C121.124 46.355 121.184 46.31 121.304 46.28C121.424 46.25 121.539 46.235 121.649 46.235C121.799 46.235 121.929 46.235 122.039 46.235C122.159 46.235 122.274 46.235 122.384 46.235C122.494 46.235 122.604 46.235 122.714 46.235C122.944 46.235 123.129 46.235 123.269 46.235C123.409 46.225 123.559 46.215 123.719 46.205C123.889 46.195 124.119 46.19 124.409 46.19C124.529 46.19 124.624 46.205 124.694 46.235C124.774 46.265 124.814 46.315 124.814 46.385C124.814 46.525 124.659 46.625 124.349 46.685C123.989 46.755 123.744 46.85 123.614 46.97C123.484 47.08 123.414 47.265 123.404 47.525C123.404 47.685 123.399 47.95 123.389 48.32C123.379 48.68 123.369 49.105 123.359 49.595C123.359 50.085 123.354 50.6 123.344 51.14C123.334 51.68 123.329 52.21 123.329 52.73C123.329 53.25 123.329 53.72 123.329 54.14C123.329 54.38 123.339 54.615 123.359 54.845C123.379 55.065 123.394 55.26 123.404 55.43C123.424 55.59 123.434 55.71 123.434 55.79C123.434 55.98 123.399 56.105 123.329 56.165C123.259 56.235 123.174 56.27 123.074 56.27ZM128.126 56.06C128.016 56.06 127.921 56.045 127.841 56.015C127.761 55.995 127.721 55.95 127.721 55.88C127.721 55.81 127.761 55.755 127.841 55.715C127.921 55.665 128.031 55.625 128.171 55.595C128.551 55.525 128.836 55.41 129.026 55.25C129.216 55.09 129.311 54.835 129.311 54.485V48.545C129.311 48.105 129.301 47.775 129.281 47.555C129.261 47.325 129.231 47.17 129.191 47.09C129.151 47 129.096 46.945 129.026 46.925C128.906 46.895 128.771 46.88 128.621 46.88C128.471 46.87 128.296 46.865 128.096 46.865H127.511C127.251 46.865 126.991 46.925 126.731 47.045C126.481 47.155 126.291 47.315 126.161 47.525C126.121 47.585 126.061 47.67 125.981 47.78C125.911 47.88 125.831 47.97 125.741 48.05C125.651 48.12 125.561 48.155 125.471 48.155C125.421 48.155 125.381 48.135 125.351 48.095C125.331 48.055 125.321 48.005 125.321 47.945C125.321 47.835 125.351 47.725 125.411 47.615C125.571 47.295 125.686 47.015 125.756 46.775C125.826 46.535 125.881 46.25 125.921 45.92C125.941 45.76 125.981 45.66 126.041 45.62C126.101 45.58 126.161 45.56 126.221 45.56C126.271 45.56 126.336 45.625 126.416 45.755C126.506 45.875 126.576 45.975 126.626 46.055C126.706 46.145 126.856 46.215 127.076 46.265C127.296 46.315 127.501 46.34 127.691 46.34L133.106 46.325C133.416 46.325 133.671 46.305 133.871 46.265C134.081 46.225 134.251 46.175 134.381 46.115C134.521 46.045 134.631 45.97 134.711 45.89C134.791 45.8 134.896 45.755 135.026 45.755C135.066 45.755 135.096 45.79 135.116 45.86C135.136 45.92 135.146 45.99 135.146 46.07C135.146 46.11 135.141 46.17 135.131 46.25C135.121 46.33 135.111 46.395 135.101 46.445C135.061 46.635 135.021 46.785 134.981 46.895C134.951 47.005 134.926 47.11 134.906 47.21C134.896 47.3 134.891 47.42 134.891 47.57V47.78C134.891 47.9 134.871 48.015 134.831 48.125C134.791 48.235 134.731 48.29 134.651 48.29C134.571 48.29 134.506 48.24 134.456 48.14C134.406 48.03 134.356 47.875 134.306 47.675C134.246 47.415 134.111 47.215 133.901 47.075C133.701 46.935 133.366 46.865 132.896 46.865H131.636C131.436 46.865 131.281 46.9 131.171 46.97C131.061 47.03 130.986 47.18 130.946 47.42C130.916 47.65 130.901 48.025 130.901 48.545V54.485C130.901 54.825 130.996 55.075 131.186 55.235C131.386 55.395 131.676 55.515 132.056 55.595C132.196 55.625 132.301 55.66 132.371 55.7C132.451 55.74 132.491 55.8 132.491 55.88C132.491 55.94 132.456 55.985 132.386 56.015C132.316 56.045 132.221 56.06 132.101 56.06C131.851 56.06 131.621 56.05 131.411 56.03C131.201 56.02 130.996 56.01 130.796 56C130.596 55.99 130.386 55.985 130.166 55.985C129.926 55.985 129.701 55.99 129.491 56C129.281 56.01 129.066 56.02 128.846 56.03C128.626 56.05 128.386 56.06 128.126 56.06ZM135.997 56.075C135.877 56.075 135.782 56.06 135.712 56.03C135.642 56 135.607 55.955 135.607 55.895C135.607 55.765 135.752 55.67 136.042 55.61C136.412 55.53 136.677 55.42 136.837 55.28C137.007 55.13 137.092 54.88 137.092 54.53V47.75C137.092 47.41 137.022 47.165 136.882 47.015C136.742 46.865 136.487 46.755 136.117 46.685C135.967 46.655 135.857 46.615 135.787 46.565C135.717 46.515 135.682 46.455 135.682 46.385C135.682 46.325 135.717 46.28 135.787 46.25C135.857 46.21 135.952 46.19 136.072 46.19C136.402 46.19 136.697 46.195 136.957 46.205C137.227 46.215 137.487 46.225 137.737 46.235C137.997 46.245 138.277 46.25 138.577 46.25C138.977 46.25 139.397 46.25 139.837 46.25C140.287 46.24 140.692 46.23 141.052 46.22C141.392 46.22 141.672 46.215 141.892 46.205C142.122 46.185 142.257 46.175 142.297 46.175C142.357 46.175 142.417 46.19 142.477 46.22C142.547 46.24 142.587 46.285 142.597 46.355C142.647 46.665 142.697 46.97 142.747 47.27C142.807 47.56 142.837 47.815 142.837 48.035C142.837 48.135 142.812 48.205 142.762 48.245C142.722 48.275 142.677 48.29 142.627 48.29C142.577 48.29 142.537 48.275 142.507 48.245C142.477 48.215 142.447 48.17 142.417 48.11C142.347 47.91 142.282 47.73 142.222 47.57C142.162 47.4 142.092 47.275 142.012 47.195C141.882 47.055 141.732 46.95 141.562 46.88C141.392 46.81 141.202 46.775 140.992 46.775H139.312C139.182 46.775 139.042 46.825 138.892 46.925C138.752 47.015 138.682 47.145 138.682 47.315V50.375C138.682 50.475 138.712 50.555 138.772 50.615C138.832 50.675 138.902 50.705 138.982 50.705H140.407C140.697 50.705 140.897 50.64 141.007 50.51C141.117 50.38 141.207 50.18 141.277 49.91C141.347 49.71 141.442 49.61 141.562 49.61C141.612 49.61 141.657 49.635 141.697 49.685C141.737 49.725 141.757 49.79 141.757 49.88C141.757 49.94 141.752 50.04 141.742 50.18C141.732 50.32 141.722 50.465 141.712 50.615C141.702 50.765 141.697 50.885 141.697 50.975C141.697 51.085 141.697 51.22 141.697 51.38C141.707 51.53 141.717 51.68 141.727 51.83C141.737 51.98 141.742 52.09 141.742 52.16C141.752 52.25 141.742 52.325 141.712 52.385C141.692 52.435 141.657 52.46 141.607 52.46C141.447 52.46 141.327 52.315 141.247 52.025C141.187 51.765 141.102 51.57 140.992 51.44C140.892 51.31 140.742 51.245 140.542 51.245H139.147C138.987 51.245 138.867 51.27 138.787 51.32C138.717 51.37 138.682 51.475 138.682 51.635V54.5C138.682 54.85 138.757 55.095 138.907 55.235C139.057 55.365 139.287 55.43 139.597 55.43H140.782C141.062 55.43 141.307 55.41 141.517 55.37C141.727 55.33 141.907 55.255 142.057 55.145C142.227 55.025 142.377 54.87 142.507 54.68C142.637 54.49 142.772 54.255 142.912 53.975C142.952 53.915 142.992 53.87 143.032 53.84C143.072 53.8 143.117 53.785 143.167 53.795C143.227 53.795 143.267 53.82 143.287 53.87C143.317 53.91 143.332 53.965 143.332 54.035C143.332 54.145 143.307 54.31 143.257 54.53C143.207 54.75 143.142 54.98 143.062 55.22C142.992 55.46 142.927 55.665 142.867 55.835C142.837 55.905 142.802 55.96 142.762 56C142.722 56.05 142.672 56.075 142.612 56.075C142.252 56.075 141.877 56.07 141.487 56.06C141.097 56.05 140.697 56.04 140.287 56.03C139.877 56.02 139.467 56.01 139.057 56C138.647 55.99 138.242 55.985 137.842 55.985C137.632 55.985 137.432 55.99 137.242 56C137.052 56.02 136.857 56.035 136.657 56.045C136.467 56.065 136.247 56.075 135.997 56.075ZM147.716 56.075C147.596 56.075 147.501 56.06 147.431 56.03C147.361 56 147.326 55.955 147.326 55.895C147.326 55.765 147.471 55.67 147.761 55.61C148.131 55.53 148.396 55.42 148.556 55.28C148.726 55.13 148.811 54.88 148.811 54.53V47.75C148.811 47.41 148.741 47.165 148.601 47.015C148.461 46.865 148.206 46.755 147.836 46.685C147.686 46.655 147.576 46.615 147.506 46.565C147.436 46.515 147.401 46.455 147.401 46.385C147.401 46.325 147.436 46.28 147.506 46.25C147.576 46.21 147.671 46.19 147.791 46.19C148.121 46.19 148.416 46.195 148.676 46.205C148.946 46.215 149.206 46.225 149.456 46.235C149.716 46.245 149.996 46.25 150.296 46.25C150.696 46.25 151.116 46.25 151.556 46.25C152.006 46.24 152.411 46.23 152.771 46.22C153.111 46.22 153.391 46.215 153.611 46.205C153.841 46.185 153.976 46.175 154.016 46.175C154.076 46.175 154.136 46.19 154.196 46.22C154.266 46.24 154.306 46.285 154.316 46.355C154.366 46.665 154.416 46.97 154.466 47.27C154.526 47.56 154.556 47.815 154.556 48.035C154.556 48.135 154.531 48.205 154.481 48.245C154.441 48.275 154.396 48.29 154.346 48.29C154.296 48.29 154.256 48.275 154.226 48.245C154.196 48.215 154.166 48.17 154.136 48.11C154.066 47.91 154.001 47.73 153.941 47.57C153.881 47.4 153.811 47.275 153.731 47.195C153.601 47.055 153.451 46.95 153.281 46.88C153.111 46.81 152.921 46.775 152.711 46.775H151.031C150.901 46.775 150.761 46.825 150.611 46.925C150.471 47.015 150.401 47.145 150.401 47.315V50.375C150.401 50.475 150.431 50.555 150.491 50.615C150.551 50.675 150.621 50.705 150.701 50.705H152.126C152.416 50.705 152.616 50.64 152.726 50.51C152.836 50.38 152.926 50.18 152.996 49.91C153.066 49.71 153.161 49.61 153.281 49.61C153.331 49.61 153.376 49.635 153.416 49.685C153.456 49.725 153.476 49.79 153.476 49.88C153.476 49.94 153.471 50.04 153.461 50.18C153.451 50.32 153.441 50.465 153.431 50.615C153.421 50.765 153.416 50.885 153.416 50.975C153.416 51.085 153.416 51.22 153.416 51.38C153.426 51.53 153.436 51.68 153.446 51.83C153.456 51.98 153.461 52.09 153.461 52.16C153.471 52.25 153.461 52.325 153.431 52.385C153.411 52.435 153.376 52.46 153.326 52.46C153.166 52.46 153.046 52.315 152.966 52.025C152.906 51.765 152.821 51.57 152.711 51.44C152.611 51.31 152.461 51.245 152.261 51.245H150.866C150.706 51.245 150.586 51.27 150.506 51.32C150.436 51.37 150.401 51.475 150.401 51.635V54.5C150.401 54.85 150.476 55.095 150.626 55.235C150.776 55.365 151.006 55.43 151.316 55.43H152.501C152.781 55.43 153.026 55.41 153.236 55.37C153.446 55.33 153.626 55.255 153.776 55.145C153.946 55.025 154.096 54.87 154.226 54.68C154.356 54.49 154.491 54.255 154.631 53.975C154.671 53.915 154.711 53.87 154.751 53.84C154.791 53.8 154.836 53.785 154.886 53.795C154.946 53.795 154.986 53.82 155.006 53.87C155.036 53.91 155.051 53.965 155.051 54.035C155.051 54.145 155.026 54.31 154.976 54.53C154.926 54.75 154.861 54.98 154.781 55.22C154.711 55.46 154.646 55.665 154.586 55.835C154.556 55.905 154.521 55.96 154.481 56C154.441 56.05 154.391 56.075 154.331 56.075C153.971 56.075 153.596 56.07 153.206 56.06C152.816 56.05 152.416 56.04 152.006 56.03C151.596 56.02 151.186 56.01 150.776 56C150.366 55.99 149.961 55.985 149.561 55.985C149.351 55.985 149.151 55.99 148.961 56C148.771 56.02 148.576 56.035 148.376 56.045C148.186 56.065 147.966 56.075 147.716 56.075ZM164.67 56.225C163.95 56.225 163.255 56.105 162.585 55.865C161.925 55.625 161.34 55.285 160.83 54.845C160.32 54.405 159.915 53.875 159.615 53.255C159.325 52.635 159.18 51.945 159.18 51.185C159.18 50.475 159.33 49.81 159.63 49.19C159.93 48.56 160.345 48.015 160.875 47.555C161.415 47.085 162.04 46.72 162.75 46.46C163.46 46.19 164.23 46.055 165.06 46.055C165.43 46.055 165.76 46.075 166.05 46.115C166.34 46.145 166.62 46.19 166.89 46.25C167.16 46.31 167.45 46.39 167.76 46.49C167.89 46.53 167.985 46.585 168.045 46.655C168.115 46.725 168.155 46.83 168.165 46.97C168.195 47.23 168.22 47.5 168.24 47.78C168.27 48.06 168.29 48.37 168.3 48.71C168.3 48.8 168.26 48.865 168.18 48.905C168.11 48.945 168.03 48.955 167.94 48.935C167.85 48.905 167.79 48.835 167.76 48.725C167.67 48.395 167.565 48.1 167.445 47.84C167.325 47.58 167.15 47.365 166.92 47.195C166.69 47.015 166.395 46.875 166.035 46.775C165.685 46.675 165.29 46.625 164.85 46.625C164.29 46.625 163.775 46.74 163.305 46.97C162.835 47.2 162.435 47.515 162.105 47.915C161.775 48.305 161.515 48.75 161.325 49.25C161.145 49.75 161.055 50.27 161.055 50.81C161.055 51.44 161.14 52.045 161.31 52.625C161.49 53.205 161.745 53.72 162.075 54.17C162.415 54.62 162.825 54.98 163.305 55.25C163.785 55.51 164.325 55.64 164.925 55.64C165.645 55.64 166.24 55.48 166.71 55.16C167.18 54.83 167.575 54.36 167.895 53.75C167.965 53.61 168.07 53.54 168.21 53.54C168.35 53.54 168.42 53.62 168.42 53.78C168.42 53.88 168.4 54.02 168.36 54.2C168.33 54.37 168.285 54.56 168.225 54.77C168.165 54.97 168.105 55.155 168.045 55.325C167.985 55.455 167.93 55.545 167.88 55.595C167.83 55.645 167.735 55.695 167.595 55.745C167.215 55.905 166.765 56.025 166.245 56.105C165.735 56.185 165.21 56.225 164.67 56.225ZM174.869 56.21C174.199 56.21 173.559 56.095 172.949 55.865C172.349 55.625 171.814 55.29 171.344 54.86C170.874 54.42 170.499 53.9 170.219 53.3C169.949 52.69 169.814 52.015 169.814 51.275C169.814 50.595 169.924 49.945 170.144 49.325C170.374 48.695 170.704 48.135 171.134 47.645C171.574 47.155 172.119 46.765 172.769 46.475C173.419 46.185 174.164 46.04 175.004 46.04C175.684 46.04 176.324 46.16 176.924 46.4C177.534 46.63 178.074 46.965 178.544 47.405C179.014 47.835 179.384 48.355 179.654 48.965C179.934 49.565 180.074 50.235 180.074 50.975C180.074 51.645 179.959 52.295 179.729 52.925C179.509 53.555 179.179 54.115 178.739 54.605C178.309 55.095 177.769 55.485 177.119 55.775C176.469 56.065 175.719 56.21 174.869 56.21ZM175.109 55.58C175.809 55.58 176.389 55.42 176.849 55.1C177.319 54.77 177.669 54.315 177.899 53.735C178.139 53.155 178.259 52.485 178.259 51.725C178.259 51.055 178.184 50.42 178.034 49.82C177.894 49.22 177.679 48.685 177.389 48.215C177.099 47.735 176.734 47.365 176.294 47.105C175.854 46.835 175.339 46.7 174.749 46.7C174.069 46.7 173.494 46.86 173.024 47.18C172.564 47.5 172.214 47.945 171.974 48.515C171.744 49.085 171.629 49.75 171.629 50.51C171.629 51.19 171.699 51.83 171.839 52.43C171.979 53.03 172.194 53.57 172.484 54.05C172.774 54.52 173.134 54.895 173.564 55.175C174.004 55.445 174.519 55.58 175.109 55.58ZM190.255 56.315C189.895 56.315 189.57 56.275 189.28 56.195C189 56.125 188.745 56.015 188.515 55.865C188.295 55.715 188.095 55.53 187.915 55.31C187.685 55.01 187.46 54.72 187.24 54.44C187.03 54.16 186.81 53.845 186.58 53.495C186.35 53.135 186.08 52.7 185.77 52.19C185.64 51.94 185.455 51.755 185.215 51.635C185.045 51.545 184.87 51.485 184.69 51.455C184.52 51.415 184.38 51.39 184.27 51.38C184.2 51.38 184.145 51.41 184.105 51.47C184.075 51.52 184.06 51.59 184.06 51.68V54.395C184.06 54.715 184.14 54.98 184.3 55.19C184.46 55.39 184.735 55.525 185.125 55.595C185.265 55.625 185.37 55.66 185.44 55.7C185.52 55.74 185.56 55.8 185.56 55.88C185.56 55.94 185.525 55.985 185.455 56.015C185.385 56.045 185.29 56.06 185.17 56.06C184.92 56.06 184.695 56.05 184.495 56.03C184.305 56.02 184.12 56.01 183.94 56C183.77 55.98 183.59 55.97 183.4 55.97C183.16 55.97 182.93 55.98 182.71 56C182.5 56.01 182.285 56.02 182.065 56.03C181.855 56.05 181.62 56.06 181.36 56.06C181.25 56.06 181.155 56.045 181.075 56.015C181.005 55.995 180.97 55.95 180.97 55.88C180.97 55.75 181.115 55.655 181.405 55.595C181.785 55.525 182.055 55.415 182.215 55.265C182.385 55.115 182.47 54.865 182.47 54.515V48.005C182.47 47.665 182.45 47.41 182.41 47.24C182.37 47.06 182.285 46.935 182.155 46.865C182.035 46.785 181.84 46.725 181.57 46.685C181.41 46.665 181.295 46.63 181.225 46.58C181.155 46.52 181.12 46.455 181.12 46.385C181.12 46.325 181.155 46.28 181.225 46.25C181.305 46.21 181.4 46.19 181.51 46.19C181.8 46.19 182.025 46.195 182.185 46.205C182.345 46.215 182.495 46.225 182.635 46.235C182.785 46.235 182.97 46.235 183.19 46.235C183.39 46.235 183.57 46.23 183.73 46.22C183.89 46.2 184.07 46.185 184.27 46.175C184.47 46.155 184.725 46.145 185.035 46.145C186.155 46.145 187.01 46.35 187.6 46.76C188.2 47.16 188.5 47.77 188.5 48.59C188.5 49.04 188.405 49.425 188.215 49.745C188.035 50.065 187.805 50.33 187.525 50.54C187.245 50.75 186.965 50.915 186.685 51.035C186.645 51.045 186.625 51.07 186.625 51.11C186.635 51.14 186.65 51.18 186.67 51.23C186.98 51.69 187.275 52.13 187.555 52.55C187.845 52.96 188.15 53.36 188.47 53.75C188.8 54.13 189.175 54.515 189.595 54.905C189.875 55.165 190.165 55.32 190.465 55.37C190.775 55.42 191.105 55.445 191.455 55.445C191.605 55.445 191.68 55.515 191.68 55.655C191.68 55.825 191.6 55.955 191.44 56.045C191.29 56.145 191.105 56.215 190.885 56.255C190.665 56.295 190.455 56.315 190.255 56.315ZM184.78 50.99C185.21 50.99 185.575 50.895 185.875 50.705C186.185 50.505 186.42 50.245 186.58 49.925C186.75 49.595 186.835 49.24 186.835 48.86C186.835 48.43 186.78 48.05 186.67 47.72C186.56 47.39 186.36 47.135 186.07 46.955C185.78 46.765 185.365 46.67 184.825 46.67C184.545 46.67 184.355 46.77 184.255 46.97C184.155 47.16 184.1 47.525 184.09 48.065C184.08 48.305 184.07 48.625 184.06 49.025C184.06 49.425 184.06 49.9 184.06 50.45C184.06 50.69 184.125 50.84 184.255 50.9C184.385 50.96 184.56 50.99 184.78 50.99ZM192.317 56.06C192.207 56.06 192.112 56.045 192.032 56.015C191.962 55.995 191.927 55.95 191.927 55.88C191.927 55.75 192.072 55.655 192.362 55.595C192.742 55.525 193.012 55.415 193.172 55.265C193.342 55.115 193.427 54.865 193.427 54.515V48.05C193.427 47.63 193.367 47.315 193.247 47.105C193.137 46.895 192.897 46.755 192.527 46.685C192.367 46.655 192.252 46.615 192.182 46.565C192.112 46.515 192.077 46.455 192.077 46.385C192.077 46.325 192.112 46.28 192.182 46.25C192.262 46.21 192.357 46.19 192.467 46.19C192.727 46.19 192.942 46.195 193.112 46.205C193.282 46.205 193.447 46.21 193.607 46.22C193.767 46.23 193.947 46.235 194.147 46.235C194.357 46.235 194.562 46.225 194.762 46.205C194.962 46.185 195.157 46.165 195.347 46.145C195.547 46.125 195.747 46.115 195.947 46.115C197.117 46.115 198.052 46.36 198.752 46.85C199.452 47.34 199.802 48.015 199.802 48.875C199.802 49.485 199.677 50.05 199.427 50.57C199.187 51.09 198.812 51.51 198.302 51.83C197.792 52.14 197.142 52.295 196.352 52.295C196.122 52.295 195.942 52.26 195.812 52.19C195.692 52.12 195.632 52.05 195.632 51.98C195.632 51.92 195.662 51.87 195.722 51.83C195.782 51.78 195.837 51.755 195.887 51.755C195.957 51.755 196.037 51.765 196.127 51.785C196.227 51.795 196.367 51.8 196.547 51.8C197.087 51.8 197.492 51.555 197.762 51.065C198.042 50.575 198.182 49.91 198.182 49.07C198.182 48.23 197.972 47.615 197.552 47.225C197.142 46.825 196.607 46.625 195.947 46.625C195.667 46.625 195.442 46.68 195.272 46.79C195.112 46.89 195.032 47.06 195.032 47.3L195.017 54.395C195.017 54.735 195.097 55.005 195.257 55.205C195.417 55.395 195.692 55.525 196.082 55.595C196.222 55.625 196.327 55.66 196.397 55.7C196.477 55.74 196.517 55.8 196.517 55.88C196.517 55.94 196.482 55.985 196.412 56.015C196.342 56.045 196.247 56.06 196.127 56.06C195.877 56.06 195.652 56.05 195.452 56.03C195.262 56.02 195.077 56.01 194.897 56C194.727 55.98 194.547 55.97 194.357 55.97C194.117 55.97 193.887 55.98 193.667 56C193.457 56.01 193.242 56.02 193.022 56.03C192.812 56.05 192.577 56.06 192.317 56.06ZM205.821 56.21C205.151 56.21 204.511 56.095 203.901 55.865C203.301 55.625 202.766 55.29 202.296 54.86C201.826 54.42 201.451 53.9 201.171 53.3C200.901 52.69 200.766 52.015 200.766 51.275C200.766 50.595 200.876 49.945 201.096 49.325C201.326 48.695 201.656 48.135 202.086 47.645C202.526 47.155 203.071 46.765 203.721 46.475C204.371 46.185 205.116 46.04 205.956 46.04C206.636 46.04 207.276 46.16 207.876 46.4C208.486 46.63 209.026 46.965 209.496 47.405C209.966 47.835 210.336 48.355 210.606 48.965C210.886 49.565 211.026 50.235 211.026 50.975C211.026 51.645 210.911 52.295 210.681 52.925C210.461 53.555 210.131 54.115 209.691 54.605C209.261 55.095 208.721 55.485 208.071 55.775C207.421 56.065 206.671 56.21 205.821 56.21ZM206.061 55.58C206.761 55.58 207.341 55.42 207.801 55.1C208.271 54.77 208.621 54.315 208.851 53.735C209.091 53.155 209.211 52.485 209.211 51.725C209.211 51.055 209.136 50.42 208.986 49.82C208.846 49.22 208.631 48.685 208.341 48.215C208.051 47.735 207.686 47.365 207.246 47.105C206.806 46.835 206.291 46.7 205.701 46.7C205.021 46.7 204.446 46.86 203.976 47.18C203.516 47.5 203.166 47.945 202.926 48.515C202.696 49.085 202.581 49.75 202.581 50.51C202.581 51.19 202.651 51.83 202.791 52.43C202.931 53.03 203.146 53.57 203.436 54.05C203.726 54.52 204.086 54.895 204.516 55.175C204.956 55.445 205.471 55.58 206.061 55.58Z" fill="#F4F6F8"/>
<path d="M59.96 36.008C58.328 36.008 56.952 35.8 55.832 35.384C54.712 35 53.752 34.488 52.952 33.848C52.184 33.176 51.496 32.424 50.888 31.592C50.184 30.664 49.496 29.736 48.824 28.808C48.184 27.88 47.544 26.872 46.904 25.784C46.264 24.696 45.592 23.448 44.888 22.04C44.568 21.336 44.136 20.84 43.592 20.552C43.304 20.36 43.016 20.232 42.728 20.168C42.44 20.104 42.184 20.072 41.96 20.072C41.8 20.072 41.672 20.168 41.576 20.36C41.48 20.52 41.432 20.744 41.432 21.032V30.2C41.432 31.192 41.704 31.912 42.248 32.36C42.792 32.808 43.736 33.176 45.08 33.464C45.432 33.528 45.688 33.64 45.848 33.8C46.04 33.928 46.136 34.136 46.136 34.424C46.136 34.648 46.056 34.824 45.896 34.952C45.736 35.08 45.512 35.144 45.224 35.144C44.52 35.144 43.704 35.112 42.776 35.048C41.88 35.016 40.984 34.984 40.088 34.952C39.192 34.92 38.424 34.904 37.784 34.904C37.112 34.904 36.376 34.92 35.576 34.952C34.776 34.984 33.944 35.016 33.08 35.048C32.248 35.112 31.48 35.144 30.776 35.144C30.52 35.144 30.296 35.096 30.104 35C29.912 34.872 29.816 34.696 29.816 34.472C29.816 33.96 30.152 33.624 30.824 33.464C32.04 33.208 32.872 32.888 33.32 32.504C33.8 32.088 34.04 31.352 34.04 30.296V8.744C34.04 7.976 33.96 7.368 33.8 6.92C33.672 6.472 33.4 6.136 32.984 5.912C32.568 5.656 31.96 5.448 31.16 5.288C30.744 5.192 30.456 5.064 30.296 4.904C30.136 4.712 30.056 4.504 30.056 4.28C30.056 4.088 30.152 3.928 30.344 3.8C30.536 3.64 30.792 3.56 31.112 3.56C32.136 3.56 32.968 3.592 33.608 3.656C34.28 3.72 34.904 3.784 35.48 3.848C36.088 3.88 36.792 3.896 37.592 3.896C38.328 3.896 38.968 3.864 39.512 3.8C40.088 3.704 40.728 3.624 41.432 3.56C42.168 3.496 43.096 3.464 44.216 3.464C47.96 3.464 50.84 4.104 52.856 5.384C54.872 6.664 55.88 8.6 55.88 11.192C55.88 12.632 55.56 13.848 54.92 14.84C54.312 15.8 53.528 16.6 52.568 17.24C51.64 17.848 50.696 18.312 49.736 18.632C49.608 18.664 49.544 18.744 49.544 18.872C49.576 18.968 49.624 19.08 49.688 19.208C50.648 20.616 51.576 21.992 52.472 23.336C53.4 24.648 54.344 25.88 55.304 27.032C56.264 28.152 57.256 29.192 58.28 30.152C59.368 31.176 60.472 31.784 61.592 31.976C62.744 32.136 63.88 32.216 65 32.216C65.48 32.216 65.72 32.504 65.72 33.08C65.72 33.784 65.464 34.36 64.952 34.808C64.472 35.224 63.8 35.528 62.936 35.72C62.072 35.912 61.08 36.008 59.96 36.008ZM43.256 18.536C44.472 18.536 45.48 18.264 46.28 17.72C47.08 17.176 47.688 16.44 48.104 15.512C48.52 14.552 48.728 13.464 48.728 12.248C48.728 10.776 48.536 9.544 48.152 8.552C47.768 7.56 47.192 6.824 46.424 6.344C45.656 5.832 44.664 5.576 43.448 5.576C42.744 5.576 42.232 5.864 41.912 6.44C41.624 6.984 41.48 8.168 41.48 9.992C41.448 10.728 41.432 11.656 41.432 12.776C41.432 13.896 41.432 15.224 41.432 16.76C41.432 17.4 41.592 17.864 41.912 18.152C42.264 18.408 42.712 18.536 43.256 18.536ZM67.5808 35.144C67.1968 35.144 66.9088 35.096 66.7168 35C66.5248 34.872 66.4288 34.696 66.4288 34.472C66.4288 34.184 66.5568 34.008 66.8128 33.944C67.1008 33.848 67.4208 33.736 67.7728 33.608C68.5088 33.352 69.1488 32.904 69.6928 32.264C70.2688 31.624 70.6208 30.808 70.7488 29.816C70.9408 28.344 71.1328 26.536 71.3248 24.392C71.5488 22.216 71.7728 19.896 71.9968 17.432C72.2208 14.968 72.4128 12.536 72.5728 10.136C72.6048 9.944 72.6208 9.704 72.6208 9.416C72.6208 9.128 72.6208 8.824 72.6208 8.504C72.6208 7.928 72.5248 7.48 72.3328 7.16C72.1728 6.808 71.8848 6.52 71.4688 6.296C71.0848 6.04 70.6688 5.832 70.2208 5.672C69.7728 5.48 69.2928 5.32 68.7808 5.192C68.3968 5.096 68.0928 4.968 67.8688 4.808C67.6448 4.648 67.5328 4.44 67.5328 4.184C67.5328 3.896 67.6608 3.704 67.9168 3.608C68.1728 3.512 68.4768 3.464 68.8288 3.464C69.3088 3.464 69.9008 3.48 70.6048 3.512C71.3088 3.544 72.0768 3.576 72.9088 3.608C73.7728 3.608 74.6368 3.624 75.5008 3.656C76.3968 3.688 77.2128 3.704 77.9488 3.704C78.2048 3.704 78.4448 3.8 78.6688 3.992C78.8928 4.152 79.0368 4.344 79.1008 4.568C79.3248 5.176 79.5328 5.768 79.7248 6.344C79.9168 6.888 80.1248 7.464 80.3488 8.072L87.4048 24.92C87.4688 25.048 87.5488 25.128 87.6448 25.16C87.7728 25.16 87.8688 25.08 87.9328 24.92L94.7968 8.984C95.0208 7.864 95.1968 6.952 95.3248 6.248C95.4848 5.544 95.6288 4.984 95.7568 4.568C95.8848 4.152 96.1408 3.944 96.5248 3.944H98.5888C99.9328 3.88 101.325 3.784 102.765 3.656C104.237 3.496 105.389 3.416 106.221 3.416C106.541 3.416 106.813 3.48 107.037 3.608C107.293 3.704 107.421 3.88 107.421 4.136C107.421 4.424 107.309 4.632 107.085 4.76C106.893 4.888 106.637 5 106.317 5.096C106.125 5.16 105.901 5.256 105.645 5.384C105.389 5.48 105.165 5.576 104.973 5.672C104.141 6.056 103.517 6.504 103.101 7.016C102.717 7.496 102.557 8.28 102.621 9.368C102.685 11.672 102.765 13.688 102.861 15.416C102.957 17.144 103.037 18.744 103.101 20.216C103.197 21.688 103.293 23.224 103.389 24.824C103.517 26.392 103.645 28.232 103.773 30.344C103.837 31.176 104.173 31.848 104.781 32.36C105.421 32.84 106.253 33.208 107.277 33.464C107.597 33.56 107.869 33.672 108.093 33.8C108.317 33.928 108.429 34.136 108.429 34.424C108.429 34.648 108.333 34.824 108.141 34.952C107.949 35.08 107.709 35.144 107.421 35.144C106.717 35.144 105.901 35.112 104.973 35.048C104.077 35.016 103.181 34.984 102.285 34.952C101.421 34.92 100.669 34.904 100.029 34.904C99.3888 34.904 98.6688 34.92 97.8688 34.952C97.1008 34.984 96.3168 35.016 95.5168 35.048C94.7168 35.112 93.9488 35.144 93.2128 35.144C92.9248 35.144 92.6688 35.096 92.4448 35C92.2208 34.872 92.1088 34.696 92.1088 34.472C92.1088 34.184 92.2208 33.96 92.4448 33.8C92.6688 33.64 92.9408 33.528 93.2608 33.464C94.4448 33.24 95.2608 32.92 95.7088 32.504C96.1568 32.056 96.3648 31.336 96.3328 30.344C96.2368 28.36 96.1568 26.392 96.0928 24.44C96.0288 22.456 95.9648 20.52 95.9008 18.632C95.8688 16.712 95.8048 14.856 95.7088 13.064C95.7088 12.84 95.6448 12.744 95.5168 12.776C95.4208 12.776 95.3248 12.888 95.2288 13.112L86.0608 34.904C85.9008 35.352 85.6608 35.544 85.3408 35.48C85.0208 35.416 84.7968 35.256 84.6688 35C83.1008 31.288 81.4528 27.624 79.7248 24.008C78.0288 20.392 76.4608 16.808 75.0208 13.256C74.9248 12.968 74.7648 12.872 74.5408 12.968C74.3488 13.032 74.2368 13.24 74.2048 13.592C74.1088 15.192 74.0288 16.952 73.9648 18.872C73.9008 20.76 73.8688 22.68 73.8688 24.632C73.8688 26.552 73.8688 28.344 73.8688 30.008C73.8688 30.904 74.1568 31.64 74.7328 32.216C75.3088 32.76 76.2208 33.176 77.4688 33.464C77.7888 33.528 78.0928 33.64 78.3808 33.8C78.6688 33.928 78.8128 34.136 78.8128 34.424C78.8128 34.648 78.6848 34.824 78.4288 34.952C78.1728 35.08 77.9008 35.144 77.6128 35.144C76.7488 35.144 76.0768 35.112 75.5968 35.048C75.1168 35.016 74.6848 35 74.3008 35C73.9168 34.968 73.3888 34.952 72.7168 34.952C72.0128 34.952 71.2928 34.968 70.5568 35C69.8208 35.032 69.1808 35.064 68.6367 35.096C68.0928 35.128 67.7408 35.144 67.5808 35.144ZM127.484 35.672C125.276 35.672 123.164 35.304 121.148 34.568C119.164 33.8 117.388 32.728 115.82 31.352C114.284 29.944 113.068 28.28 112.172 26.36C111.308 24.408 110.876 22.248 110.876 19.88C110.876 17.704 111.228 15.624 111.932 13.64C112.668 11.624 113.756 9.832 115.196 8.264C116.636 6.696 118.412 5.448 120.524 4.52C122.668 3.592 125.132 3.128 127.916 3.128C130.156 3.128 132.268 3.512 134.252 4.28C136.268 5.016 138.044 6.088 139.58 7.496C141.116 8.872 142.332 10.536 143.228 12.488C144.124 14.408 144.572 16.552 144.572 18.92C144.572 21.064 144.204 23.144 143.468 25.16C142.732 27.176 141.644 28.968 140.204 30.536C138.764 32.104 136.972 33.352 134.828 34.28C132.716 35.208 130.268 35.672 127.484 35.672ZM128.348 33.464C130.172 33.464 131.692 32.952 132.908 31.928C134.156 30.904 135.084 29.48 135.692 27.656C136.3 25.832 136.604 23.736 136.604 21.368C136.604 19.416 136.412 17.496 136.028 15.608C135.676 13.688 135.1 11.96 134.3 10.424C133.532 8.888 132.54 7.672 131.324 6.776C130.108 5.848 128.668 5.384 127.004 5.384C125.212 5.384 123.692 5.896 122.444 6.92C121.228 7.944 120.316 9.352 119.708 11.144C119.1 12.936 118.796 15.016 118.796 17.384C118.796 19.368 118.988 21.32 119.372 23.24C119.756 25.128 120.332 26.84 121.1 28.376C121.868 29.912 122.844 31.144 124.028 32.072C125.244 33 126.684 33.464 128.348 33.464ZM178.593 35.912C178.177 35.912 177.505 35.656 176.577 35.144C175.649 34.664 174.689 33.8 173.697 32.552C172.929 31.752 172.129 30.888 171.297 29.96C170.465 29.032 169.585 28.072 168.657 27.08C167.729 26.088 166.785 25.08 165.825 24.056C164.897 23.032 163.969 22.024 163.041 21.032C162.113 20.008 161.185 19 160.257 18.008C159.329 17.016 158.449 16.056 157.617 15.128C156.785 14.2 155.985 13.336 155.217 12.536C155.153 12.408 155.041 12.296 154.881 12.2C154.753 12.072 154.657 12.008 154.593 12.008C154.465 12.008 154.369 12.12 154.305 12.344C154.273 12.568 154.257 12.76 154.257 12.92C154.225 14.392 154.225 16.12 154.257 18.104C154.289 20.088 154.321 22.104 154.353 24.152C154.417 26.168 154.449 28.008 154.449 29.672C154.449 30.696 154.769 31.512 155.409 32.12C156.049 32.696 156.993 33.144 158.241 33.464C158.593 33.528 158.897 33.64 159.153 33.8C159.441 33.928 159.585 34.136 159.585 34.424C159.585 34.648 159.457 34.824 159.201 34.952C158.945 35.08 158.673 35.144 158.385 35.144C157.521 35.144 156.817 35.112 156.273 35.048C155.729 35.016 155.217 35 154.737 35C154.289 34.968 153.729 34.952 153.057 34.952C152.353 34.952 151.681 34.968 151.041 35C150.433 35.032 149.905 35.064 149.457 35.096C149.041 35.128 148.753 35.144 148.593 35.144C148.369 35.144 148.113 35.096 147.825 35C147.569 34.872 147.441 34.696 147.441 34.472C147.441 34.184 147.569 33.976 147.825 33.848C148.081 33.72 148.369 33.592 148.689 33.464C149.457 33.176 150.033 32.696 150.417 32.024C150.833 31.352 151.073 30.52 151.137 29.528C151.265 28.344 151.393 26.776 151.521 24.824C151.681 22.872 151.825 20.68 151.953 18.248C152.081 15.784 152.145 13.24 152.145 10.616C152.145 8.952 151.713 7.752 150.849 7.016C150.017 6.28 148.993 5.688 147.777 5.24C147.521 5.176 147.233 5.064 146.913 4.904C146.593 4.712 146.433 4.472 146.433 4.184C146.433 3.896 146.561 3.704 146.817 3.608C147.073 3.48 147.361 3.416 147.681 3.416C148.257 3.416 148.897 3.432 149.601 3.464C150.337 3.496 151.105 3.528 151.905 3.56C152.705 3.56 153.537 3.576 154.401 3.608C155.265 3.64 156.129 3.656 156.993 3.656C157.249 3.656 157.441 3.704 157.569 3.8C157.729 3.896 157.873 4.024 158.001 4.184C158.705 4.984 159.457 5.848 160.257 6.776C161.089 7.704 161.953 8.68 162.849 9.704C163.745 10.696 164.657 11.72 165.585 12.776C166.513 13.8 167.425 14.84 168.321 15.896C169.249 16.952 170.145 17.976 171.009 18.968C171.905 19.96 172.769 20.92 173.601 21.848C174.433 22.776 175.201 23.64 175.905 24.44C176.001 24.568 176.113 24.712 176.241 24.872C176.401 25 176.545 25.064 176.673 25.064C176.929 25.064 177.057 24.824 177.057 24.344C177.057 23.352 177.057 22.2 177.057 20.888C177.089 19.576 177.105 18.184 177.105 16.712C177.105 15.24 177.089 13.784 177.057 12.344C177.057 10.904 177.025 9.576 176.961 8.36C176.929 7.496 176.593 6.856 175.953 6.44C175.345 5.992 174.497 5.624 173.409 5.336C173.057 5.272 172.753 5.16 172.497 5C172.241 4.84 172.113 4.616 172.113 4.328C172.113 4.104 172.241 3.944 172.497 3.848C172.753 3.72 173.025 3.656 173.313 3.656C174.049 3.656 174.673 3.672 175.185 3.704C175.697 3.704 176.161 3.704 176.577 3.704C176.993 3.704 177.457 3.704 177.969 3.704C178.609 3.704 179.153 3.704 179.601 3.704C180.049 3.672 180.529 3.64 181.041 3.608C181.585 3.576 182.273 3.56 183.105 3.56C183.489 3.56 183.777 3.624 183.969 3.752C184.193 3.88 184.305 4.056 184.305 4.28C184.305 4.76 183.889 5.08 183.057 5.24C181.937 5.464 181.137 5.784 180.657 6.2C180.177 6.616 179.921 7.288 179.889 8.216C179.889 9.368 179.873 10.6 179.841 11.912C179.841 13.224 179.809 14.568 179.745 15.944C179.681 17.32 179.617 18.696 179.553 20.072C179.521 21.416 179.489 22.712 179.457 23.96C179.425 25.208 179.409 26.36 179.409 27.416C179.409 28.152 179.457 28.968 179.553 29.864C179.649 30.728 179.729 31.528 179.793 32.264C179.889 32.968 179.937 33.464 179.937 33.752C179.937 34.552 179.809 35.112 179.553 35.432C179.329 35.752 179.009 35.912 178.593 35.912ZM186.494 35.144C186.238 35.144 186.014 35.096 185.822 35C185.63 34.872 185.534 34.696 185.534 34.472C185.534 33.96 185.87 33.624 186.542 33.464C187.758 33.208 188.606 32.888 189.086 32.504C189.566 32.088 189.806 31.368 189.806 30.344V8.552C189.806 7.528 189.598 6.808 189.182 6.392C188.766 5.944 187.918 5.576 186.638 5.288C185.966 5.128 185.63 4.792 185.63 4.28C185.63 4.056 185.726 3.88 185.918 3.752C186.11 3.624 186.334 3.56 186.59 3.56C187.326 3.56 188.094 3.576 188.894 3.608C189.726 3.64 190.526 3.688 191.294 3.752C192.094 3.784 192.83 3.8 193.502 3.8C194.142 3.8 194.862 3.784 195.662 3.752C196.494 3.72 197.326 3.688 198.158 3.656C199.022 3.624 199.806 3.608 200.51 3.608C200.798 3.608 201.022 3.672 201.182 3.8C201.342 3.896 201.422 4.056 201.422 4.28C201.422 4.6 201.326 4.824 201.134 4.952C200.974 5.08 200.718 5.192 200.366 5.288C199.086 5.64 198.238 6.04 197.822 6.488C197.406 6.904 197.198 7.608 197.198 8.6V30.296C197.198 31.224 197.422 31.912 197.87 32.36C198.35 32.776 199.214 33.144 200.462 33.464C200.782 33.56 201.022 33.672 201.182 33.8C201.374 33.928 201.47 34.136 201.47 34.424C201.47 34.648 201.39 34.824 201.23 34.952C201.102 35.08 200.894 35.144 200.606 35.144C199.902 35.144 199.118 35.112 198.254 35.048C197.39 35.016 196.542 34.984 195.71 34.952C194.878 34.92 194.142 34.904 193.502 34.904C192.83 34.904 192.094 34.92 191.294 34.952C190.494 34.984 189.678 35.016 188.846 35.048C188.014 35.112 187.23 35.144 186.494 35.144ZM212.762 35.672C211.386 35.672 210.058 35.512 208.778 35.192C207.498 34.872 206.298 34.36 205.178 33.656C204.986 33.496 204.794 33.32 204.602 33.128C204.41 32.936 204.266 32.728 204.17 32.504C203.85 31.64 203.626 30.584 203.498 29.336C203.402 28.088 203.37 26.824 203.402 25.544C203.402 25.32 203.498 25.16 203.69 25.064C203.882 24.968 204.106 24.92 204.362 24.92C204.682 24.92 204.89 24.968 204.986 25.064C205.114 25.128 205.242 25.272 205.37 25.496C206.074 27.896 207.114 29.832 208.49 31.304C209.898 32.776 211.53 33.512 213.386 33.512C214.41 33.512 215.242 33.288 215.882 32.84C216.554 32.36 217.066 31.768 217.418 31.064C217.77 30.328 217.946 29.592 217.946 28.856C217.946 27.832 217.738 26.968 217.322 26.264C216.938 25.56 216.346 24.92 215.546 24.344C214.746 23.768 213.722 23.144 212.474 22.472C211.13 21.704 209.834 20.904 208.586 20.072C207.338 19.208 206.314 18.168 205.514 16.952C204.714 15.736 204.314 14.216 204.314 12.392C204.314 10.504 204.794 8.872 205.754 7.496C206.746 6.12 208.09 5.048 209.786 4.28C211.482 3.512 213.386 3.128 215.498 3.128C216.714 3.128 217.866 3.256 218.954 3.512C220.074 3.768 220.97 4.024 221.642 4.28C222.026 4.44 222.298 4.616 222.458 4.808C222.65 5 222.81 5.336 222.938 5.816C223.098 6.488 223.226 7.304 223.322 8.264C223.45 9.224 223.514 10.28 223.514 11.432C223.514 11.848 223.226 12.056 222.65 12.056C222.362 12.056 222.09 11.992 221.834 11.864C221.61 11.704 221.466 11.512 221.402 11.288C220.858 9.368 220.058 7.912 219.002 6.92C217.946 5.928 216.65 5.432 215.114 5.432C214.154 5.432 213.338 5.592 212.666 5.912C211.994 6.232 211.482 6.712 211.13 7.352C210.81 7.992 210.65 8.792 210.65 9.752C210.65 10.52 210.906 11.24 211.418 11.912C211.962 12.552 212.73 13.208 213.722 13.88C214.714 14.552 215.85 15.272 217.13 16.04C218.858 17.064 220.234 18.072 221.258 19.064C222.282 20.056 223.018 21.112 223.466 22.232C223.946 23.32 224.186 24.584 224.186 26.024C224.186 28.2 223.706 30.008 222.746 31.448C221.818 32.888 220.49 33.96 218.762 34.664C217.066 35.336 215.066 35.672 212.762 35.672Z" fill="#F4F6F8"/>
<path d="M8.58203 20.0176L6.73047 24.1143L4.38184 27.5469L4.36328 27.5889L4.3623 27.5918C4.36132 27.594 4.35938 27.5972 4.35742 27.6016C4.35336 27.6106 4.3468 27.625 4.33887 27.6426C4.32301 27.6778 4.29983 27.7296 4.27051 27.7939C4.21156 27.9233 4.12775 28.1053 4.0293 28.3154C3.8315 28.7375 3.5762 29.2674 3.34082 29.7129L2.6543 31.0127L3.99121 30.4014C5.1371 29.8772 6.64168 29.3327 7.87012 28.916C8.48218 28.7084 9.02183 28.5336 9.4082 28.4111C9.60123 28.35 9.75609 28.3014 9.8623 28.2686C9.91505 28.2523 9.95584 28.2399 9.9834 28.2314C9.99702 28.2273 10.0077 28.2238 10.0146 28.2217C10.0179 28.2207 10.0208 28.2202 10.0225 28.2197L10.0244 28.2188H10.0254L10.3721 28.1143L10.3799 27.752V27.751L10.3809 27.749C10.3809 27.7468 10.3808 27.7427 10.3809 27.7383C10.3811 27.7294 10.3815 27.7161 10.3818 27.6992C10.3826 27.6652 10.3834 27.6151 10.3848 27.5518C10.3874 27.4246 10.3908 27.2427 10.3945 27.0234C10.402 26.585 10.4098 25.9963 10.4121 25.3965C10.4144 24.7977 10.4113 24.1826 10.3955 23.6943C10.3876 23.4511 10.3763 23.2322 10.3604 23.0596C10.3524 22.9738 10.3428 22.891 10.3301 22.8193C10.3207 22.7668 10.2993 22.657 10.2451 22.5576H10.2461C10.246 22.5574 10.2408 22.5474 10.2305 22.5225C10.2199 22.4969 10.2065 22.463 10.1914 22.4209C10.1611 22.3367 10.1262 22.2286 10.0869 22.1035C10.0084 21.8536 9.91918 21.5477 9.83496 21.249C9.75091 20.9509 9.6718 20.6621 9.61426 20.4482C9.58557 20.3416 9.56214 20.2536 9.5459 20.1924C9.53777 20.1618 9.53162 20.1373 9.52734 20.1211C9.52532 20.1134 9.52353 20.1076 9.52246 20.1035C9.52196 20.1016 9.52175 20.0997 9.52148 20.0986V20.0977L9.52051 20.0967L9.16309 18.7314L8.58203 20.0176ZM19.4795 20.0967V20.0986C19.4792 20.0997 19.479 20.1016 19.4785 20.1035C19.4774 20.1076 19.4757 20.1134 19.4736 20.1211C19.4694 20.1373 19.4632 20.1618 19.4551 20.1924C19.4388 20.2537 19.4145 20.3415 19.3857 20.4482C19.3282 20.662 19.2501 20.9509 19.166 21.249C19.0818 21.5475 18.9926 21.8528 18.9141 22.1025C18.8747 22.2276 18.8389 22.3357 18.8086 22.4199C18.7934 22.462 18.7801 22.496 18.7695 22.5215C18.7583 22.5487 18.7539 22.5584 18.7549 22.5566L18.7539 22.5576C18.6997 22.6573 18.6792 22.7679 18.6699 22.8203C18.6573 22.8918 18.6475 22.9739 18.6396 23.0596C18.6238 23.2321 18.6133 23.4511 18.6055 23.6943C18.5898 24.1826 18.5856 24.7977 18.5879 25.3965C18.5902 25.9963 18.599 26.585 18.6064 27.0234C18.6102 27.2427 18.6136 27.4246 18.6162 27.5518C18.6175 27.6151 18.6184 27.6652 18.6191 27.6992C18.6195 27.7161 18.6199 27.7294 18.6201 27.7383V27.752L18.6289 28.1143L18.9766 28.2188L18.9785 28.2197C18.9801 28.2202 18.9824 28.2208 18.9854 28.2217C18.9922 28.2238 19.003 28.2273 19.0166 28.2314C19.0442 28.2399 19.0856 28.2522 19.1387 28.2686C19.2449 28.3014 19.3997 28.3499 19.5928 28.4111C19.9791 28.5336 20.5188 28.7084 21.1309 28.916C22.3593 29.3327 23.8639 29.8772 25.0098 30.4014L26.3467 31.0127L25.6602 29.7129C25.4247 29.2673 25.1688 28.7375 24.9707 28.3154C24.872 28.1051 24.7886 27.9224 24.7295 27.793C24.7 27.7283 24.676 27.6768 24.6602 27.6416C24.6523 27.6242 24.6466 27.6106 24.6426 27.6016C24.6406 27.5972 24.6387 27.594 24.6377 27.5918C24.6372 27.5907 24.637 27.5894 24.6367 27.5889V27.5879L24.6182 27.5469L22.2695 24.1143L20.4189 20.0176L19.8379 18.7314L19.4795 20.0967ZM13.3369 10.8926L13.1855 10.7461L13.1748 10.7354C13.1661 10.7266 13.1523 10.7129 13.1348 10.6943C13.0991 10.6565 13.0474 10.5993 12.9873 10.5273C12.8963 10.4183 12.7893 10.2786 12.6895 10.1201L12.5928 9.95508C12.4548 9.70266 12.3436 9.376 12.2656 9.0957C12.2277 8.9593 12.1995 8.84029 12.1807 8.75586C12.1713 8.71382 12.1637 8.68034 12.1592 8.6582C12.157 8.64735 12.1553 8.639 12.1543 8.63379C12.1538 8.63119 12.1535 8.62895 12.1533 8.62793V8.62695L12.1035 8.3584L11.8506 8.25586L11.8037 8.23242C11.7937 8.21097 11.779 8.17103 11.7559 8.08691C11.7291 7.98966 11.7102 7.90824 11.6689 7.75391V7.75293L11.6113 7.51562C11.5962 7.4429 11.5853 7.37626 11.5781 7.31641C11.5686 7.23741 11.5691 7.17908 11.5713 7.1377H12.0566L12.0293 6.6123C11.9711 5.48806 12.2237 4.7202 12.6338 4.24023C13.0373 3.76814 13.6569 3.5 14.5 3.5C15.3436 3.50001 15.9636 3.76812 16.3672 4.24023C16.7774 4.72017 17.0299 5.48809 16.9717 6.6123L16.9443 7.1377H17.4297C17.4318 7.17912 17.4323 7.23753 17.4229 7.31641C17.4084 7.43624 17.3779 7.58251 17.332 7.75391C17.2908 7.90807 17.2719 7.98989 17.2451 8.08691C17.222 8.17071 17.2062 8.21008 17.1963 8.23145C17.1886 8.23588 17.1746 8.24465 17.1494 8.25488L16.8965 8.3584L16.8467 8.62695V8.62793C16.8465 8.62896 16.8462 8.63119 16.8457 8.63379C16.8447 8.63901 16.843 8.64737 16.8408 8.6582C16.8363 8.68035 16.8287 8.71382 16.8193 8.75586C16.8005 8.8403 16.7723 8.95929 16.7344 9.0957C16.6565 9.37591 16.5457 9.70256 16.4082 9.95508C16.2846 10.1815 16.1351 10.3818 16.0137 10.5273C15.9536 10.5993 15.9019 10.6565 15.8662 10.6943C15.8487 10.7129 15.8349 10.7266 15.8262 10.7354L15.8164 10.7451L15.6631 10.8926V11.1055C15.6631 11.5675 15.6582 11.9367 15.7119 12.2197C15.7781 12.5685 15.9323 12.8049 16.1846 13.0293C16.5735 13.3752 16.9975 13.5118 17.4482 13.6035C17.6671 13.6481 17.9121 13.6852 18.1621 13.7266C18.4177 13.7689 18.6967 13.818 19.0098 13.8887C19.5674 14.0148 20.0469 14.2846 20.4541 14.7842C20.8704 15.295 21.2311 16.0717 21.4922 17.2393L21.499 17.2666L21.5078 17.2939L21.5088 17.2969C21.5096 17.2991 21.5112 17.3023 21.5127 17.3066C21.5157 17.3154 21.5205 17.3287 21.5264 17.3457C21.5382 17.3798 21.555 17.4303 21.5771 17.4941C21.6216 17.6224 21.6859 17.8067 21.7627 18.0283C21.9163 18.4715 22.1222 19.0668 22.333 19.6748L23.2695 22.3682C23.3203 22.5102 23.4876 22.8455 23.6826 23.2236C23.8872 23.6205 24.1479 24.1114 24.4102 24.5957C24.6724 25.08 24.9376 25.5609 25.1523 25.9355C25.2595 26.1225 25.3559 26.2863 25.4336 26.4121C25.4722 26.4747 25.509 26.5312 25.541 26.5781C25.5662 26.6152 25.6084 26.6769 25.6572 26.7266C25.7482 26.819 25.8525 26.8734 25.9238 26.9053C25.9983 26.9385 26.077 26.964 26.1406 26.9844C26.2829 27.0299 26.3924 27.0614 26.5068 27.1123C26.6769 27.188 26.8148 27.2878 26.8906 27.5049L26.9199 27.6055C26.9946 27.9351 26.9862 28.1147 26.9756 28.1895C26.9744 28.1981 26.9719 28.2051 26.9707 28.2109L26.8223 28.4072L26.959 28.6846V28.6865C26.9595 28.6876 26.9609 28.6893 26.9619 28.6914C26.964 28.6955 26.9668 28.7021 26.9707 28.71L27.1279 29.0244C27.232 29.2302 27.3764 29.5103 27.5342 29.8076C27.656 30.0373 27.7882 30.2785 27.917 30.5049L27.625 30.9473C27.5805 30.9617 27.5147 30.978 27.4316 30.9893L26.502 31.1162L27.125 31.8174C27.9179 32.7094 28.0371 33.6679 27.749 34.3486C27.4673 35.0145 26.7373 35.5521 25.5234 35.4961C24.4253 35.4453 21.7107 35.0234 19.2314 34.6055C18.0005 34.398 16.8401 34.1934 15.9873 34.041C15.561 33.9648 15.2114 33.9016 14.9688 33.8574C14.8475 33.8354 14.7527 33.8184 14.6885 33.8066C14.6564 33.8008 14.6317 33.796 14.6152 33.793C14.6071 33.7915 14.6008 33.7898 14.5967 33.7891C14.5947 33.7887 14.5928 33.7892 14.5918 33.7891L14.5908 33.7881L14.5 33.7715L14.4092 33.7881L14.4082 33.7891C14.4072 33.7892 14.4052 33.7887 14.4033 33.7891C14.3992 33.7898 14.3928 33.7915 14.3848 33.793C14.3683 33.796 14.3436 33.8008 14.3115 33.8066C14.2473 33.8184 14.1524 33.8354 14.0312 33.8574C13.7886 33.9016 13.439 33.9648 13.0127 34.041C12.1599 34.1934 10.9995 34.398 9.76855 34.6055C7.28945 35.0234 4.57515 35.4453 3.47754 35.4961C2.26366 35.5521 1.53384 35.0146 1.25195 34.3486C0.963772 33.6678 1.08257 32.7094 1.875 31.8174L2.49707 31.1162L1.56836 30.9893C1.48525 30.9779 1.41937 30.9618 1.375 30.9473L1.08301 30.5039C1.21178 30.2777 1.345 30.037 1.4668 29.8076C1.62456 29.5104 1.76798 29.2302 1.87207 29.0244C1.92406 28.9216 1.96676 28.8372 1.99609 28.7783C2.01069 28.749 2.02247 28.7257 2.03027 28.71C2.03418 28.7021 2.03702 28.6955 2.03906 28.6914C2.04007 28.6894 2.04048 28.6876 2.04102 28.6865L2.04199 28.6855V28.6846L2.17871 28.4072L2.0293 28.2109C2.02814 28.2051 2.02661 28.198 2.02539 28.1895C2.01475 28.1147 2.00619 27.9346 2.08105 27.6045C2.14632 27.3167 2.29883 27.1988 2.49316 27.1123C2.60761 27.0614 2.71707 27.0299 2.85938 26.9844C2.92308 26.964 3.00252 26.9386 3.07715 26.9053C3.14842 26.8734 3.25185 26.8189 3.34277 26.7266H3.34375C3.39233 26.677 3.43469 26.6153 3.45996 26.5781C3.49185 26.5312 3.52881 26.4746 3.56738 26.4121C3.64491 26.2864 3.74061 26.1224 3.84766 25.9355C4.0623 25.5609 4.32848 25.08 4.59082 24.5957C4.85314 24.1114 5.11368 23.6204 5.31836 23.2236C5.51336 22.8456 5.67967 22.5103 5.73047 22.3682C5.80485 22.16 6.24694 20.8889 6.66797 19.6748C6.87881 19.0668 7.08472 18.4715 7.23828 18.0283C7.31496 17.807 7.37845 17.6233 7.42285 17.4951C7.44506 17.431 7.46275 17.3799 7.47461 17.3457C7.48049 17.3287 7.48524 17.3154 7.48828 17.3066C7.48976 17.3024 7.49143 17.2991 7.49219 17.2969V17.2949L7.49316 17.2939L7.50195 17.2666L7.50879 17.2393C7.76984 16.0716 8.1297 15.295 8.5459 14.7842C8.95293 14.2846 9.43223 14.0148 9.99023 13.8887C10.3033 13.818 10.5822 13.7689 10.8379 13.7266C11.0878 13.6852 11.3329 13.6481 11.5518 13.6035C11.946 13.5233 12.3204 13.4086 12.668 13.1494L12.8154 13.0293C13.0674 12.8052 13.2224 12.5694 13.2891 12.2207C13.3432 11.9374 13.3369 11.5678 13.3369 11.1055V10.8926Z" fill="#F4F6F8" stroke="#F4F6F8"/>
</svg>
