<svg width="226" height="59" viewBox="0 0 226 59" fill="none" xmlns="http://www.w3.org/2000/svg">
<path d="M6.21902 56.3864V45.4773H10.214C10.9882 45.4773 11.6292 45.6051 12.137 45.8608C12.6448 46.1129 13.0248 46.4556 13.2769 46.8888C13.529 47.3185 13.6551 47.8033 13.6551 48.343C13.6551 48.7976 13.5716 49.1811 13.4047 49.4936C13.2378 49.8025 13.0141 50.0511 12.7336 50.2393C12.4566 50.424 12.1512 50.5589 11.8174 50.6442V50.7507C12.1796 50.7685 12.5329 50.8856 12.8774 51.1023C13.2254 51.3153 13.5131 51.619 13.7403 52.0131C13.9676 52.4073 14.0812 52.8867 14.0812 53.4513C14.0812 54.0089 13.9498 54.5096 13.6871 54.9535C13.4278 55.3938 13.0265 55.7436 12.4832 56.0028C11.9399 56.2585 11.2457 56.3864 10.4005 56.3864H6.21902ZM7.86497 54.9748H10.2407C11.029 54.9748 11.5937 54.8221 11.9346 54.5167C12.2755 54.2113 12.4459 53.8295 12.4459 53.3714C12.4459 53.027 12.3589 52.7109 12.1849 52.4233C12.0109 52.1356 11.7623 51.9066 11.4392 51.7361C11.1196 51.5657 10.7396 51.4805 10.2993 51.4805H7.86497V54.9748ZM7.86497 50.1967H10.0702C10.4395 50.1967 10.7716 50.1257 11.0663 49.9837C11.3646 49.8416 11.6008 49.6427 11.7748 49.3871C11.9523 49.1278 12.0411 48.8224 12.0411 48.4709C12.0411 48.0199 11.8831 47.6417 11.567 47.3363C11.251 47.0309 10.7662 46.8782 10.1128 46.8782H7.86497V50.1967ZM16.0335 56.3864V45.4773H22.873V46.8942H17.6794V50.218H22.5161V51.6296H17.6794V54.9694H22.9369V56.3864H16.0335ZM33.8766 45.4773V56.3864H32.3638L26.8187 48.3856H26.7175V56.3864H25.0716V45.4773H26.595L32.1454 53.4886H32.2466V45.4773H33.8766ZM36.2776 56.3864V45.4773H43.1171V46.8942H37.9236V50.218H42.7602V51.6296H37.9236V54.9694H43.181V56.3864H36.2776ZM51.2656 48.343C51.2088 47.8388 50.9744 47.4481 50.5625 47.1712C50.1506 46.8906 49.6321 46.7503 49.0071 46.7503C48.5597 46.7503 48.1726 46.8214 47.8459 46.9634C47.5192 47.1019 47.2653 47.2937 47.0842 47.5387C46.9066 47.7802 46.8178 48.0554 46.8178 48.3643C46.8178 48.6236 46.8782 48.8473 46.9989 49.0355C47.1232 49.2237 47.2848 49.3817 47.4837 49.5096C47.6861 49.6339 47.9027 49.7386 48.1335 49.8239C48.3643 49.9055 48.5863 49.973 48.7994 50.0263L49.8647 50.3033C50.2127 50.3885 50.5696 50.5039 50.9354 50.6495C51.3011 50.7951 51.6403 50.9868 51.9528 51.2248C52.2653 51.4627 52.5174 51.7574 52.7092 52.109C52.9045 52.4606 53.0021 52.8814 53.0021 53.3714C53.0021 53.9893 52.8423 54.538 52.5227 55.0174C52.2067 55.4968 51.7468 55.875 51.1431 56.152C50.543 56.429 49.8168 56.5675 48.9645 56.5675C48.1477 56.5675 47.4411 56.4378 46.8445 56.1786C46.2479 55.9194 45.7809 55.5518 45.4435 55.076C45.1062 54.5966 44.9197 54.0284 44.8842 53.3714H46.5355C46.5675 53.7656 46.6953 54.0941 46.919 54.3569C47.1463 54.6161 47.4357 54.8096 47.7873 54.9375C48.1424 55.0618 48.5312 55.1239 48.9538 55.1239C49.419 55.1239 49.8327 55.0511 50.195 54.9055C50.5607 54.7564 50.8484 54.5504 51.0579 54.2876C51.2674 54.0213 51.3722 53.7106 51.3722 53.3555C51.3722 53.0323 51.2798 52.7677 51.0952 52.5618C50.9141 52.3558 50.6673 52.1854 50.3548 52.0504C50.0458 51.9155 49.696 51.7965 49.3054 51.6935L48.0163 51.342C47.1428 51.104 46.4503 50.7543 45.9389 50.2926C45.4311 49.831 45.1772 49.2202 45.1772 48.4602C45.1772 47.8317 45.3477 47.283 45.6886 46.8143C46.0295 46.3455 46.4911 45.9815 47.0735 45.7223C47.6559 45.4595 48.3129 45.3281 49.0444 45.3281C49.783 45.3281 50.4347 45.4577 50.9993 45.717C51.5675 45.9762 52.0149 46.3331 52.3416 46.7876C52.6683 47.2386 52.8388 47.7571 52.853 48.343H51.2656ZM60.9189 48.343C60.8621 47.8388 60.6278 47.4481 60.2158 47.1712C59.8039 46.8906 59.2854 46.7503 58.6604 46.7503C58.213 46.7503 57.8259 46.8214 57.4992 46.9634C57.1725 47.1019 56.9186 47.2937 56.7375 47.5387C56.5599 47.7802 56.4711 48.0554 56.4711 48.3643C56.4711 48.6236 56.5315 48.8473 56.6523 49.0355C56.7765 49.2237 56.9381 49.3817 57.137 49.5096C57.3394 49.6339 57.556 49.7386 57.7868 49.8239C58.0177 49.9055 58.2396 49.973 58.4527 50.0263L59.518 50.3033C59.866 50.3885 60.2229 50.5039 60.5887 50.6495C60.9545 50.7951 61.2936 50.9868 61.6061 51.2248C61.9186 51.4627 62.1707 51.7574 62.3625 52.109C62.5578 52.4606 62.6555 52.8814 62.6555 53.3714C62.6555 53.9893 62.4956 54.538 62.176 55.0174C61.86 55.4968 61.4001 55.875 60.7964 56.152C60.1963 56.429 59.4701 56.5675 58.6178 56.5675C57.801 56.5675 57.0944 56.4378 56.4978 56.1786C55.9012 55.9194 55.4342 55.5518 55.0969 55.076C54.7595 54.5966 54.5731 54.0284 54.5376 53.3714H56.1888C56.2208 53.7656 56.3486 54.0941 56.5724 54.3569C56.7996 54.6161 57.089 54.8096 57.4406 54.9375C57.7957 55.0618 58.1846 55.1239 58.6072 55.1239C59.0724 55.1239 59.4861 55.0511 59.8483 54.9055C60.214 54.7564 60.5017 54.5504 60.7112 54.2876C60.9207 54.0213 61.0255 53.7106 61.0255 53.3555C61.0255 53.0323 60.9331 52.7677 60.7485 52.5618C60.5674 52.3558 60.3206 52.1854 60.0081 52.0504C59.6991 51.9155 59.3493 51.7965 58.9587 51.6935L57.6697 51.342C56.7961 51.104 56.1036 50.7543 55.5922 50.2926C55.0844 49.831 54.8305 49.2202 54.8305 48.4602C54.8305 47.8317 55.001 47.283 55.3419 46.8143C55.6828 46.3455 56.1444 45.9815 56.7268 45.7223C57.3092 45.4595 57.9662 45.3281 58.6977 45.3281C59.4363 45.3281 60.088 45.4577 60.6526 45.717C61.2208 45.9762 61.6682 46.3331 61.9949 46.7876C62.3216 47.2386 62.4921 47.7571 62.5063 48.343H60.9189ZM64.6223 56.3864V45.4773H71.4618V46.8942H66.2683V50.218H71.1049V51.6296H66.2683V54.9694H71.5257V56.3864H64.6223ZM73.6604 56.3864V45.4773H77.5489C78.3941 45.4773 79.0954 45.6229 79.653 45.9141C80.214 46.2052 80.6331 46.6083 80.9101 47.1232C81.1871 47.6346 81.3256 48.2258 81.3256 48.897C81.3256 49.5646 81.1853 50.1523 80.9047 50.6601C80.6278 51.1644 80.2087 51.5568 79.6476 51.8373C79.0901 52.1179 78.3888 52.2582 77.5436 52.2582H74.5979V50.8413H77.3944C77.9271 50.8413 78.3604 50.7649 78.6942 50.6122C79.0315 50.4595 79.2783 50.2376 79.4346 49.9464C79.5908 49.6552 79.6689 49.3054 79.6689 48.897C79.6689 48.4851 79.589 48.1282 79.4292 47.8263C79.273 47.5245 79.0262 47.2937 78.6888 47.1339C78.355 46.9705 77.9165 46.8888 77.3731 46.8888H75.3064V56.3864H73.6604ZM79.0457 51.4645L81.741 56.3864H79.866L77.224 51.4645H79.0457ZM83.3284 56.3864V45.4773H90.1679V46.8942H84.9743V50.218H89.811V51.6296H84.9743V54.9694H90.2318V56.3864H83.3284ZM96.3362 45.4773H98.3337L101.807 53.9574H101.935L105.408 45.4773H107.405V56.3864H105.839V48.4922H105.738L102.521 56.3704H101.221L98.0035 48.4868H97.9023V56.3864H96.3362V45.4773ZM109.798 56.3864V45.4773H116.638V46.8942H111.444V50.218H116.281V51.6296H111.444V54.9694H116.702V56.3864H109.798ZM127.641 45.4773V56.3864H126.128L120.583 48.3856H120.482V56.3864H118.836V45.4773H120.36L125.91 53.4886H126.011V45.4773H127.641ZM129.504 46.8942V45.4773H137.947V46.8942H134.543V56.3864H132.903V46.8942H129.504ZM139.813 56.3864V45.4773H146.652V46.8942H141.459V50.218H146.295V51.6296H141.459V54.9694H146.716V56.3864H139.813ZM152.821 56.3864V45.4773H159.66V46.8942H154.467V50.218H159.303V51.6296H154.467V54.9694H159.724V56.3864H152.821ZM174.889 49.0248H173.227C173.163 48.6697 173.044 48.3572 172.87 48.0873C172.696 47.8175 172.483 47.5884 172.231 47.4002C171.979 47.212 171.697 47.0699 171.384 46.9741C171.075 46.8782 170.747 46.8302 170.399 46.8302C169.77 46.8302 169.207 46.9883 168.71 47.3043C168.217 47.6204 167.826 48.0838 167.538 48.6946C167.254 49.3054 167.112 50.0511 167.112 50.9318C167.112 51.8196 167.254 52.5689 167.538 53.1797C167.826 53.7905 168.218 54.2521 168.715 54.5646C169.213 54.8771 169.772 55.0334 170.393 55.0334C170.738 55.0334 171.065 54.9872 171.373 54.8949C171.686 54.799 171.968 54.6587 172.22 54.4741C172.473 54.2894 172.686 54.0639 172.86 53.7976C173.037 53.5277 173.16 53.2187 173.227 52.8707L174.889 52.8761C174.8 53.4123 174.628 53.9059 174.372 54.3569C174.12 54.8043 173.795 55.1914 173.398 55.5181C173.003 55.8413 172.552 56.0916 172.045 56.2692C171.537 56.4467 170.983 56.5355 170.383 56.5355C169.438 56.5355 168.597 56.3118 167.858 55.8643C167.119 55.4133 166.537 54.7688 166.111 53.9307C165.688 53.0927 165.477 52.093 165.477 50.9318C165.477 49.767 165.69 48.7674 166.116 47.9329C166.542 47.0948 167.125 46.452 167.863 46.0046C168.602 45.5536 169.442 45.3281 170.383 45.3281C170.962 45.3281 171.501 45.4116 172.002 45.5785C172.506 45.7418 172.959 45.9833 173.36 46.3029C173.762 46.619 174.094 47.006 174.356 47.4641C174.619 47.9187 174.797 48.4389 174.889 49.0248ZM186.335 50.9318C186.335 52.0966 186.122 53.098 185.696 53.9361C185.27 54.7706 184.685 55.4133 183.943 55.8643C183.205 56.3118 182.365 56.5355 181.424 56.5355C180.479 56.5355 179.636 56.3118 178.893 55.8643C178.155 55.4133 177.572 54.7688 177.146 53.9307C176.72 53.0927 176.507 52.093 176.507 50.9318C176.507 49.767 176.72 48.7674 177.146 47.9329C177.572 47.0948 178.155 46.452 178.893 46.0046C179.636 45.5536 180.479 45.3281 181.424 45.3281C182.365 45.3281 183.205 45.5536 183.943 46.0046C184.685 46.452 185.27 47.0948 185.696 47.9329C186.122 48.7674 186.335 49.767 186.335 50.9318ZM184.705 50.9318C184.705 50.044 184.561 49.2965 184.273 48.6893C183.989 48.0785 183.599 47.6168 183.102 47.3043C182.608 46.9883 182.049 46.8302 181.424 46.8302C180.795 46.8302 180.234 46.9883 179.74 47.3043C179.247 47.6168 178.856 48.0785 178.569 48.6893C178.284 49.2965 178.142 50.044 178.142 50.9318C178.142 51.8196 178.284 52.5689 178.569 53.1797C178.856 53.7869 179.247 54.2486 179.74 54.5646C180.234 54.8771 180.795 55.0334 181.424 55.0334C182.049 55.0334 182.608 54.8771 183.102 54.5646C183.599 54.2486 183.989 53.7869 184.273 53.1797C184.561 52.5689 184.705 51.8196 184.705 50.9318ZM188.387 56.3864V45.4773H192.275C193.121 45.4773 193.822 45.6229 194.38 45.9141C194.941 46.2052 195.36 46.6083 195.637 47.1232C195.914 47.6346 196.052 48.2258 196.052 48.897C196.052 49.5646 195.912 50.1523 195.631 50.6601C195.354 51.1644 194.935 51.5568 194.374 51.8373C193.817 52.1179 193.115 52.2582 192.27 52.2582H189.324V50.8413H192.121C192.654 50.8413 193.087 50.7649 193.421 50.6122C193.758 50.4595 194.005 50.2376 194.161 49.9464C194.317 49.6552 194.396 49.3054 194.396 48.897C194.396 48.4851 194.316 48.1282 194.156 47.8263C194 47.5245 193.753 47.2937 193.415 47.1339C193.082 46.9705 192.643 46.8888 192.1 46.8888H190.033V56.3864H188.387ZM193.772 51.4645L196.468 56.3864H194.593L191.951 51.4645H193.772ZM198.055 56.3864V45.4773H201.943C202.792 45.4773 203.495 45.6317 204.053 45.9407C204.61 46.2496 205.028 46.6722 205.305 47.2084C205.582 47.7411 205.72 48.3413 205.72 49.0089C205.72 49.68 205.58 50.2837 205.299 50.8199C205.022 51.3526 204.603 51.7752 204.042 52.0877C203.485 52.3967 202.783 52.5511 201.938 52.5511H199.264V51.1555H201.789C202.325 51.1555 202.76 51.0632 203.094 50.8785C203.428 50.6903 203.673 50.4346 203.829 50.1115C203.985 49.7883 204.063 49.4208 204.063 49.0089C204.063 48.5969 203.985 48.2312 203.829 47.9116C203.673 47.592 203.426 47.3416 203.089 47.1605C202.755 46.9794 202.315 46.8888 201.768 46.8888H199.701V56.3864H198.055ZM217.126 50.9318C217.126 52.0966 216.913 53.098 216.487 53.9361C216.061 54.7706 215.476 55.4133 214.734 55.8643C213.996 56.3118 213.156 56.5355 212.215 56.5355C211.27 56.5355 210.427 56.3118 209.684 55.8643C208.946 55.4133 208.363 54.7688 207.937 53.9307C207.511 53.0927 207.298 52.093 207.298 50.9318C207.298 49.767 207.511 48.7674 207.937 47.9329C208.363 47.0948 208.946 46.452 209.684 46.0046C210.427 45.5536 211.27 45.3281 212.215 45.3281C213.156 45.3281 213.996 45.5536 214.734 46.0046C215.476 46.452 216.061 47.0948 216.487 47.9329C216.913 48.7674 217.126 49.767 217.126 50.9318ZM215.496 50.9318C215.496 50.044 215.352 49.2965 215.064 48.6893C214.78 48.0785 214.39 47.6168 213.893 47.3043C213.399 46.9883 212.84 46.8302 212.215 46.8302C211.586 46.8302 211.025 46.9883 210.531 47.3043C210.038 47.6168 209.647 48.0785 209.36 48.6893C209.075 49.2965 208.933 50.044 208.933 50.9318C208.933 51.8196 209.075 52.5689 209.36 53.1797C209.647 53.7869 210.038 54.2486 210.531 54.5646C211.025 54.8771 211.586 55.0334 212.215 55.0334C212.84 55.0334 213.399 54.8771 213.893 54.5646C214.39 54.2486 214.78 53.7869 215.064 53.1797C215.352 52.5689 215.496 51.8196 215.496 50.9318Z" fill="#1D4575"/>
<path d="M34.0341 35.3864V0.477261H47.8068C50.4432 0.477261 52.6932 0.948852 54.5568 1.89203C56.4318 2.82385 57.858 4.14772 58.8352 5.86363C59.8239 7.56817 60.3182 9.57385 60.3182 11.8807C60.3182 14.1989 59.8182 16.1932 58.8182 17.8636C57.8182 19.5227 56.3693 20.7954 54.4716 21.6818C52.5852 22.5682 50.3011 23.0114 47.6193 23.0114H38.3977V17.0795H46.4261C47.8352 17.0795 49.0057 16.8864 49.9375 16.5C50.8693 16.1136 51.5625 15.5341 52.017 14.7614C52.483 13.9886 52.7159 13.0284 52.7159 11.8807C52.7159 10.7216 52.483 9.74431 52.017 8.94885C51.5625 8.1534 50.8636 7.55112 49.9205 7.14203C48.9886 6.72158 47.8125 6.51135 46.392 6.51135H41.4148V35.3864H34.0341ZM52.8864 19.5L61.5625 35.3864H53.4148L44.9261 19.5H52.8864ZM65.5341 0.477261H74.6364L84.25 23.9318H84.6591L94.2727 0.477261H103.375V35.3864H96.2159V12.6648H95.9261L86.892 35.2159H82.017L72.983 12.5795H72.6932V35.3864H65.5341V0.477261ZM141.536 17.9318C141.536 21.7386 140.814 24.9773 139.371 27.6477C137.939 30.3182 135.984 32.3579 133.507 33.767C131.041 35.1648 128.268 35.8636 125.189 35.8636C122.087 35.8636 119.303 35.1591 116.837 33.75C114.371 32.3409 112.422 30.3011 110.99 27.6307C109.558 24.9602 108.842 21.7273 108.842 17.9318C108.842 14.125 109.558 10.8864 110.99 8.2159C112.422 5.54544 114.371 3.51135 116.837 2.11363C119.303 0.704534 122.087 -1.23978e-05 125.189 -1.23978e-05C128.268 -1.23978e-05 131.041 0.704534 133.507 2.11363C135.984 3.51135 137.939 5.54544 139.371 8.2159C140.814 10.8864 141.536 14.125 141.536 17.9318ZM134.053 17.9318C134.053 15.4659 133.683 13.3864 132.945 11.6932C132.217 9.99999 131.189 8.7159 129.859 7.8409C128.53 6.9659 126.973 6.5284 125.189 6.5284C123.405 6.5284 121.848 6.9659 120.518 7.8409C119.189 8.7159 118.155 9.99999 117.416 11.6932C116.689 13.3864 116.325 15.4659 116.325 17.9318C116.325 20.3977 116.689 22.4773 117.416 24.1704C118.155 25.8636 119.189 27.1477 120.518 28.0227C121.848 28.8977 123.405 29.3352 125.189 29.3352C126.973 29.3352 128.53 28.8977 129.859 28.0227C131.189 27.1477 132.217 25.8636 132.945 24.1704C133.683 22.4773 134.053 20.3977 134.053 17.9318ZM176.202 0.477261V35.3864H169.827L154.639 13.4148H154.384V35.3864H147.003V0.477261H153.48L168.548 22.4318H168.855V0.477261H176.202ZM189.68 0.477261V35.3864H182.3V0.477261H189.68ZM214.69 10.517C214.554 9.14203 213.969 8.07385 212.935 7.31249C211.901 6.55112 210.497 6.17044 208.724 6.17044C207.52 6.17044 206.503 6.3409 205.673 6.68181C204.844 7.01135 204.207 7.47158 203.764 8.06249C203.332 8.6534 203.116 9.32385 203.116 10.0739C203.094 10.6989 203.224 11.2443 203.509 11.7102C203.804 12.1761 204.207 12.5795 204.719 12.9204C205.23 13.25 205.821 13.5398 206.491 13.7898C207.162 14.0284 207.878 14.2329 208.639 14.4034L211.776 15.1534C213.298 15.4943 214.696 15.9489 215.969 16.517C217.241 17.0852 218.344 17.7841 219.276 18.6136C220.207 19.4432 220.929 20.4204 221.44 21.5454C221.963 22.6704 222.23 23.9602 222.241 25.4148C222.23 27.5511 221.685 29.4034 220.605 30.9716C219.537 32.5284 217.991 33.7386 215.969 34.6023C213.957 35.4545 211.531 35.8807 208.69 35.8807C205.872 35.8807 203.418 35.4489 201.327 34.5852C199.247 33.7216 197.622 32.4432 196.452 30.75C195.293 29.0454 194.685 26.9375 194.628 24.4261H201.77C201.849 25.5966 202.185 26.5739 202.776 27.3579C203.378 28.1307 204.179 28.7159 205.179 29.1136C206.19 29.5 207.332 29.6932 208.605 29.6932C209.855 29.6932 210.94 29.5114 211.861 29.1477C212.793 28.7841 213.514 28.2784 214.026 27.6307C214.537 26.9829 214.793 26.2386 214.793 25.3977C214.793 24.6136 214.56 23.9545 214.094 23.4204C213.639 22.8864 212.969 22.4318 212.082 22.0568C211.207 21.6818 210.134 21.3409 208.861 21.0341L205.06 20.0795C202.116 19.3636 199.793 18.2443 198.088 16.7216C196.384 15.1989 195.537 13.1477 195.548 10.5682C195.537 8.45453 196.099 6.60794 197.236 5.0284C198.384 3.44885 199.957 2.2159 201.957 1.32953C203.957 0.44317 206.23 -1.23978e-05 208.776 -1.23978e-05C211.366 -1.23978e-05 213.628 0.44317 215.56 1.32953C217.503 2.2159 219.014 3.44885 220.094 5.0284C221.173 6.60794 221.73 8.43749 221.764 10.517H214.69Z" fill="#1D4575"/>
<path d="M9.29199 19.4449L7.29395 23.7936L4.78809 27.3961L4.76172 27.4332L4.74316 27.4742V27.4752H4.74219C4.74193 27.4758 4.74176 27.477 4.74121 27.4781L4.7168 27.5319C4.69969 27.5692 4.6743 27.6235 4.64258 27.692C4.57899 27.8293 4.48911 28.0227 4.38281 28.2457C4.16941 28.6935 3.89385 29.2569 3.63965 29.7301L2.94336 31.026L4.28516 30.4225C5.52304 29.8656 7.14752 29.2864 8.47266 28.8444C9.1329 28.6241 9.71503 28.4391 10.1318 28.3092C10.3402 28.2443 10.5074 28.1937 10.6221 28.1588C10.6792 28.1415 10.7231 28.1277 10.7529 28.1188C10.7678 28.1143 10.7796 28.1113 10.7871 28.109C10.7906 28.108 10.7931 28.1066 10.7949 28.1061L10.7979 28.1051L11.1465 28.0016L11.1553 27.6383V27.6237C11.1555 27.6143 11.1558 27.6006 11.1562 27.5826C11.1571 27.5466 11.1587 27.4936 11.1602 27.4264C11.163 27.2916 11.1669 27.0983 11.1709 26.8658C11.1789 26.4008 11.187 25.7755 11.1895 25.1393C11.1919 24.5044 11.1889 23.853 11.1719 23.3356C11.1634 23.0778 11.1509 22.8462 11.1338 22.6637C11.1253 22.573 11.1151 22.4859 11.1016 22.4108C11.0914 22.3548 11.069 22.2417 11.0127 22.1403H11.0137C11.013 22.139 11.0065 22.1273 10.9951 22.1002C10.9836 22.0726 10.9695 22.0366 10.9531 21.9918C10.9203 21.9019 10.8823 21.7869 10.8398 21.6539C10.7551 21.3885 10.6582 21.0645 10.5674 20.7477C10.4767 20.4314 10.3922 20.1249 10.3301 19.8981C10.2991 19.785 10.2744 19.6916 10.2568 19.6266C10.2481 19.5941 10.2409 19.5686 10.2363 19.5514C10.2341 19.5429 10.2326 19.5363 10.2314 19.5319C10.2309 19.5298 10.2298 19.5281 10.2295 19.527V19.525L9.87109 18.1832L9.29199 19.4449ZM21.0459 19.525V19.527C21.0456 19.5281 21.0455 19.5298 21.0449 19.5319C21.0437 19.5363 21.0414 19.5428 21.0391 19.5514C21.0344 19.5686 21.0283 19.5942 21.0195 19.6266C21.002 19.6916 20.9763 19.7849 20.9453 19.8981C20.8833 20.1248 20.7987 20.4306 20.708 20.7467C20.6171 21.0637 20.5205 21.3885 20.4355 21.6539C20.3931 21.7867 20.3542 21.9011 20.3213 21.9908C20.3048 22.0357 20.2909 22.0727 20.2793 22.1002C20.2684 22.1262 20.2625 22.1377 20.2617 22.1393L20.2607 22.1403C20.2045 22.2419 20.1829 22.3559 20.1729 22.4117C20.1594 22.4867 20.1491 22.5731 20.1406 22.6637C20.1236 22.8461 20.1119 23.0778 20.1035 23.3356C20.0866 23.8529 20.0834 24.5044 20.0859 25.1393C20.0884 25.7754 20.0964 26.4008 20.1045 26.8658C20.1085 27.0983 20.1124 27.2916 20.1152 27.4264C20.1167 27.4936 20.1183 27.5466 20.1191 27.5826C20.1195 27.6006 20.1199 27.6143 20.1201 27.6237V27.6383L20.1289 28.0016L20.4785 28.1051L20.4805 28.1061C20.4823 28.1066 20.4848 28.108 20.4883 28.109C20.4958 28.1113 20.5076 28.1143 20.5225 28.1188C20.5522 28.1277 20.5962 28.1415 20.6533 28.1588C20.768 28.1936 20.9353 28.2443 21.1436 28.3092C21.5605 28.4391 22.1433 28.6241 22.8037 28.8444C24.1287 29.2864 25.7524 29.8656 26.9902 30.4225L28.333 31.026L27.6367 29.7291C27.3825 29.2559 27.1062 28.6935 26.8926 28.2457C26.7861 28.0225 26.6956 27.8293 26.6318 27.692C26.6 27.6234 26.5748 27.5682 26.5576 27.5309C26.5492 27.5125 26.5425 27.4984 26.5381 27.4889C26.536 27.4843 26.5343 27.4805 26.5332 27.4781C26.5327 27.477 26.5325 27.4758 26.5322 27.4752L26.5312 27.4742L26.5127 27.4332L26.4873 27.3961L23.9814 23.7936L21.9834 19.4449L21.4043 18.1832L21.0459 19.525ZM2.11621 28.0905C2.11691 28.0914 2.11749 28.0925 2.11816 28.0934L2.11426 28.0885L2.11621 28.0905ZM14.3447 9.76819L14.1895 9.62073L14.1875 9.61975C14.1856 9.6179 14.1825 9.61374 14.1777 9.60901C14.1682 9.59956 14.1529 9.58504 14.1338 9.56506C14.0949 9.52453 14.0389 9.46327 13.9736 9.38635C13.8417 9.23095 13.6786 9.01739 13.5439 8.77502V8.77405C13.3937 8.50375 13.2737 8.15571 13.1895 7.85803C13.1483 7.71258 13.1171 7.58567 13.0967 7.49573C13.0865 7.45086 13.0791 7.41484 13.0742 7.39124C13.0719 7.37995 13.0704 7.37137 13.0693 7.36584C13.0688 7.36306 13.0676 7.36012 13.0674 7.35901H13.0684L13.0176 7.08948L12.7627 6.98694C12.7212 6.97026 12.7032 6.95877 12.6973 6.95471C12.6964 6.95308 12.6957 6.95058 12.6943 6.94788C12.6825 6.92352 12.6655 6.87988 12.6396 6.78772C12.6108 6.68479 12.5901 6.59688 12.5459 6.4342V6.43323L12.4834 6.1803C12.467 6.10261 12.4551 6.03161 12.4473 5.96741C12.4345 5.86307 12.4363 5.79111 12.4414 5.74475H12.9619L12.9336 5.21838C12.8707 4.02316 13.1429 3.20191 13.5918 2.68518C14.0352 2.17481 14.717 1.88635 15.6377 1.88635C16.5587 1.88643 17.2401 2.17493 17.6836 2.68518C18.1326 3.20188 18.4048 4.02317 18.3418 5.21838L18.3145 5.74475H18.834C18.839 5.79121 18.8409 5.86317 18.8281 5.96741C18.8124 6.09591 18.7791 6.25178 18.7295 6.4342C18.6853 6.59665 18.6645 6.68504 18.6357 6.78772C18.6099 6.87974 18.5938 6.92365 18.582 6.94788C18.5805 6.95106 18.5781 6.95301 18.5771 6.95471C18.5702 6.95929 18.5516 6.97095 18.5117 6.98694L18.2578 7.08948L18.207 7.35803L18.2061 7.35901C18.2058 7.36007 18.2056 7.3623 18.2051 7.36487C18.204 7.37039 18.2026 7.3796 18.2002 7.39124C18.1953 7.41486 18.1879 7.45084 18.1777 7.49573C18.1574 7.5857 18.1261 7.71254 18.085 7.85803C18.0008 8.15592 17.8813 8.5045 17.7314 8.77502C17.5969 9.01737 17.4336 9.23098 17.3018 9.38635C17.2366 9.46315 17.1804 9.52359 17.1416 9.56409C17.1222 9.58431 17.1072 9.59953 17.0977 9.60901L17.0869 9.61975L16.9316 9.76819V9.98303C16.9316 10.4743 16.925 10.8633 16.9824 11.1608C17.0527 11.5251 17.2166 11.7702 17.4834 12.0035C17.8953 12.3638 18.344 12.5066 18.8262 12.6031C19.0612 12.6502 19.3241 12.6899 19.5947 12.734C19.7327 12.7565 19.8771 12.7802 20.0293 12.8082L20.5117 12.9059C21.1228 13.0418 21.6476 13.3328 22.0918 13.8688C22.5448 14.4154 22.9349 15.2432 23.2168 16.483L23.2236 16.5114L23.2334 16.5397C23.2336 16.5403 23.234 16.5415 23.2344 16.5426C23.2352 16.545 23.2367 16.5489 23.2383 16.5533C23.2416 16.5627 23.2466 16.5765 23.2529 16.5944C23.2657 16.6306 23.2838 16.6839 23.3076 16.7516C23.3555 16.8876 23.425 17.0829 23.5078 17.318C23.6734 17.7881 23.8957 18.4193 24.123 19.0641C24.577 20.3515 25.0524 21.6993 25.1328 21.9205C25.1868 22.0691 25.3655 22.423 25.5762 22.8248C25.7968 23.2456 26.0785 23.7662 26.3613 24.2799C26.6441 24.7934 26.9298 25.3028 27.1611 25.6998C27.2766 25.898 27.3803 26.0717 27.4639 26.2047C27.5053 26.2707 27.544 26.3303 27.5781 26.3795C27.5917 26.3992 27.6101 26.4249 27.6309 26.4518L27.7012 26.5328C27.7946 26.6262 27.902 26.6807 27.9766 26.7135C28.0546 26.7478 28.1377 26.775 28.2061 26.7965C28.3575 26.8442 28.4785 26.8781 28.6045 26.9332C28.8237 27.0292 28.9962 27.1623 29.0693 27.4772C29.1505 27.8289 29.1428 28.0224 29.1309 28.1051C29.129 28.1177 29.1257 28.1277 29.124 28.1354L28.9688 28.3356L29.1104 28.6178V28.6198C29.1109 28.6209 29.1122 28.6225 29.1133 28.6246C29.1155 28.629 29.119 28.6351 29.123 28.6432C29.1315 28.6599 29.1434 28.6852 29.1592 28.7164C29.1908 28.7789 29.2369 28.8681 29.293 28.9772C29.4051 29.1952 29.5596 29.4923 29.7295 29.8073C29.8632 30.0551 30.0093 30.3157 30.1504 30.5592L29.8203 31.0504C29.7689 31.0683 29.69 31.0888 29.5898 31.1022L28.6475 31.2281L29.2852 31.9332C30.1469 32.8868 30.2775 33.9129 29.9629 34.6442C29.6537 35.3627 28.8508 35.9426 27.5234 35.8824C26.3356 35.8284 23.4048 35.3801 20.7324 34.9371C19.4049 34.7171 18.1531 34.5002 17.2334 34.3385C16.7736 34.2577 16.3965 34.19 16.1348 34.1432C16.0039 34.1198 15.9014 34.102 15.832 34.0895C15.7975 34.0833 15.7707 34.078 15.7529 34.0748C15.7444 34.0733 15.7378 34.0727 15.7334 34.0719C15.7314 34.0715 15.7296 34.0711 15.7285 34.0709L15.7266 34.0699L15.6377 34.0543L15.5479 34.0699L15.5469 34.0709C15.5458 34.0711 15.5433 34.0715 15.541 34.0719C15.5366 34.0727 15.53 34.0733 15.5215 34.0748C15.5037 34.078 15.477 34.0832 15.4424 34.0895C15.373 34.102 15.2705 34.1198 15.1396 34.1432C14.878 34.19 14.5015 34.2577 14.042 34.3385C13.1223 34.5002 11.8705 34.717 10.543 34.9371C7.8709 35.3801 4.94041 35.8283 3.75293 35.8824C2.42533 35.9427 1.62184 35.3629 1.3125 34.6442C0.997775 33.9129 1.12817 32.8867 1.98926 31.9332L2.62598 31.2281L1.68555 31.1022C1.58605 31.0888 1.50642 31.0702 1.45508 31.0524L1.125 30.5582C1.266 30.315 1.41231 30.0557 1.5459 29.8082C1.71601 29.4931 1.87019 29.1954 1.98242 28.9772C2.0385 28.8682 2.08459 28.7789 2.11621 28.7164L2.16211 28.6246C2.16316 28.6225 2.16447 28.6209 2.16504 28.6198L2.30664 28.3365L2.15137 28.1364C2.14964 28.1286 2.14643 28.1182 2.14453 28.1051C2.13261 28.0223 2.12496 27.8288 2.20605 27.4772C2.27863 27.1625 2.45057 27.0292 2.66992 26.9332C2.79614 26.878 2.9176 26.8442 3.06934 26.7965C3.13785 26.775 3.2217 26.7478 3.2998 26.7135C3.37433 26.6807 3.48095 26.626 3.57422 26.5328L3.5752 26.5319C3.62527 26.4816 3.66998 26.419 3.69727 26.3795C3.73133 26.3302 3.76999 26.27 3.81152 26.2037C3.89488 26.0708 3.99894 25.8978 4.11426 25.6998C4.34556 25.3028 4.63126 24.7934 4.91406 24.2799C5.19701 23.7662 5.47851 23.2456 5.69922 22.8248C5.90996 22.423 6.08856 22.0692 6.14258 21.9205C6.22294 21.6994 6.69838 20.3515 7.15234 19.0641C7.37975 18.4192 7.60294 17.7881 7.76855 17.318C7.85137 17.0829 7.91988 16.8876 7.96777 16.7516C7.99165 16.6838 8.01068 16.6306 8.02344 16.5944C8.02976 16.5764 8.0348 16.5627 8.03809 16.5533C8.03966 16.5489 8.04018 16.545 8.04102 16.5426C8.04141 16.5415 8.04178 16.5403 8.04199 16.5397L8.04297 16.5387L8.05273 16.5114L8.05859 16.484C8.34052 15.2438 8.73067 14.4155 9.18359 13.8688C9.62756 13.333 10.1522 13.0418 10.7637 12.9059C11.1026 12.8306 11.4045 12.779 11.6807 12.734C11.9511 12.69 12.2143 12.6502 12.4492 12.6031C12.9313 12.5066 13.3805 12.3642 13.792 12.0035L13.791 12.0026C14.0573 11.7696 14.2213 11.5258 14.292 11.1617C14.3498 10.8639 14.3447 10.4747 14.3447 9.98303V9.76819Z" fill="#21C3B9" stroke="#1D4575"/>
</svg>
